<svg width="36" height="32" viewBox="0 0 36 32" fill="none" xmlns="http://www.w3.org/2000/svg">
<path fill-rule="evenodd" clip-rule="evenodd" d="M3.6 4H32.4V28H3.6V4ZM0 4C0 1.79086 1.61177 0 3.6 0H32.4C34.3882 0 36 1.79086 36 4V28C36 30.2091 34.3882 32 32.4 32H3.6C1.61178 32 0 30.2091 0 28V4ZM7.81774 10.4645C7.11479 9.68346 7.11479 8.41713 7.81774 7.63608C8.52068 6.85503 9.66038 6.85503 10.3633 7.63608L18.0001 16.1214L25.6368 7.63608C26.3398 6.85503 27.4795 6.85503 28.1824 7.63608C28.8854 8.41713 28.8854 9.68346 28.1824 10.4645L19.2729 20.364C18.5699 21.1451 17.4302 21.1451 16.7273 20.364L7.81774 10.4645Z" fill="#F2F2F2"/>
</svg>
