<svg width="100" height="100" viewBox="0 0 100 100" fill="none" xmlns="http://www.w3.org/2000/svg">
<circle cx="50" cy="50" r="50" fill="#121212"/>
<path d="M36.752 44.016H36.608L34.16 48.912L27.632 60.768L21.248 48.96L18.704 43.68H18.56V66H11.696V32.496H19.424L27.632 48.192H27.728L35.84 32.496H43.616V66H36.752V44.016ZM54.7681 66.528C53.3281 66.528 52.2561 66.176 51.5521 65.472C50.8801 64.736 50.5441 63.808 50.5441 62.688V61.728C50.5441 60.608 50.8801 59.696 51.5521 58.992C52.2561 58.256 53.3281 57.888 54.7681 57.888C56.2081 57.888 57.2641 58.256 57.9361 58.992C58.6401 59.696 58.9921 60.608 58.9921 61.728V62.688C58.9921 63.808 58.6401 64.736 57.9361 65.472C57.2641 66.176 56.2081 66.528 54.7681 66.528ZM65.8835 66V32.496H88.1075V38.976H73.1795V45.84H85.8995V52.272H73.1795V66H65.8835Z" fill="#FF620A"/>
</svg>
