<svg width="100" height="100" viewBox="0 0 100 100" fill="none" xmlns="http://www.w3.org/2000/svg">
<rect x="1" y="1" width="98" height="98" stroke="#FF4500" stroke-width="2"/>
<path d="M54.5 16.5045L77.3392 29.6907C80.1238 31.2984 81.8392 34.2696 81.8392 37.4849V63.8574C81.8392 67.0728 80.1238 70.0439 77.3392 71.6516L54.5 84.8379C51.7154 86.4456 48.2846 86.4456 45.5 84.8379L22.6608 71.6516C19.8762 70.0439 18.1608 67.0728 18.1608 63.8574V37.4849C18.1608 34.2696 19.8762 31.2984 22.6608 29.6907L45.5 16.5045C48.2846 14.8968 51.7154 14.8968 54.5 16.5045Z" stroke="#FF4500" stroke-width="2"/>
<g clip-path="url(#clip0_263_33)">
<path d="M19.4631 70.1342C17.5939 69.0551 81.5436 31.0631 81.5436 33.2215L82.2123 65.7718C82.2123 67.9295 81.0613 69.9235 79.1921 71.0027L53.0982 86.2416C51.2291 87.3208 48.9271 87.3208 47.0579 86.2416L19.4631 70.1342Z" fill="#FF4500"/>
</g>
<path d="M69.1121 43.3497V46.9032H72.6542V43.3497H74.4253V46.9032H77.9675V48.68H74.4253V52.2332H77.9675V54.0099H74.4253V57.5634H72.6542V54.0099H69.1121V57.5634H67.341V54.0099H63.7991V52.2332H67.341V48.68H63.7991V46.9032H67.341V43.3497H69.1121ZM72.6542 48.6797H69.1121V52.2332H72.6542V48.6797Z" fill="white"/>
<path d="M49.8069 25.5036C59.0458 25.5036 67.112 30.5371 71.4326 38.0191L71.3905 37.9471L60.5201 44.226C58.3786 40.5884 54.4526 38.1333 49.9486 38.0827L49.8066 38.0819C42.9386 38.0819 37.3707 43.6677 37.3707 50.5576C37.3684 52.7292 37.934 54.8635 39.0108 56.7473C41.1544 60.5015 45.1842 63.0336 49.8069 63.0336C54.4582 63.0336 58.5108 60.4694 60.6434 56.6751L60.5916 56.7661L71.4455 63.074C67.1722 70.4927 59.2164 75.5106 50.085 75.6106L49.8069 75.6122C40.5387 75.6122 32.4497 70.5475 28.1399 63.026C26.036 59.354 24.8322 55.0972 24.8322 50.5576C24.8322 36.7208 36.0134 25.5033 49.8066 25.5033L49.8069 25.5036Z" fill="white"/>
<defs>
<clipPath id="clip0_263_33">
<rect width="62.7828" height="55.6605" fill="white" transform="translate(19.4631 32.8859)"/>
</clipPath>
</defs>
</svg>
