<svg width="100" height="100" viewBox="0 0 100 100" fill="none" xmlns="http://www.w3.org/2000/svg">
<path d="M49.9124 89.6558L22.6673 81.9984L17.1927 15.0962L82.1312 15.2301L76.3416 82.0032L49.9124 89.6558Z" stroke="#FF4500" stroke-width="2"/>
<rect x="1" y="1" width="98" height="98" stroke="#FF4500" stroke-width="2"/>
<path d="M49.9165 84.0643V20.6333L77.5554 20.7255L72.6271 77.4758L49.9165 84.0643Z" fill="#FF4500"/>
<path d="M70.6933 28.7435H28.1775L29.3273 37.0321H49.5015L29.6501 45.5543L30.7999 53.5693H60.0497L58.9891 64.7632L49.0864 66.697L40.103 64.3942L39.4113 58.0364H31.1688L32.2726 71.2563L49.9596 76.1846L66.9118 70.7951L69.0792 44.9548H51.1586L70.6902 36.8476L70.6933 28.7435Z" fill="#F2F2F2"/>
</svg>
