<svg width="100" height="100" viewBox="0 0 100 100" fill="none" xmlns="http://www.w3.org/2000/svg">
<path d="M16.1859 42.8837C14.2769 42.8837 12.8565 43.819 12.8565 46.0735C12.8565 47.7731 13.7918 48.9527 16.0812 48.9527C18.0216 48.9527 19.3408 47.808 19.3408 46.0037C19.3408 43.9586 18.1612 42.8837 16.1859 42.8837ZM12.3714 58.8013C11.9212 59.3562 11.471 59.9425 11.471 60.637C11.471 62.0225 13.2369 62.4413 15.6659 62.4413C17.6761 62.4413 20.4157 62.3017 20.4157 60.4311C20.4157 59.3213 19.0965 59.2515 17.4318 59.1468L12.3714 58.8013ZM22.6353 42.9884C23.26 43.7876 23.9195 44.8974 23.9195 46.4923C23.9195 50.3417 20.9042 52.5927 16.5348 52.5927C15.425 52.5927 14.4199 52.4531 13.7953 52.2821L12.6506 54.1178L16.0497 54.3272C22.0489 54.7111 25.5842 54.8821 25.5842 59.4923C25.5842 63.4813 22.0838 65.7323 16.0497 65.7323C9.77485 65.7323 7.38075 64.1374 7.38075 61.3978C7.38075 59.8378 8.07525 59.0072 9.28626 57.8625C8.14156 57.3774 7.76116 56.5119 7.76116 55.5766C7.76116 54.8123 8.14156 54.1213 8.76626 53.4617C9.39096 52.8056 10.082 52.146 10.9161 51.3817C9.21646 50.5511 7.93565 48.7468 7.93565 46.1817C7.93565 42.1962 10.5706 39.4566 15.8753 39.4566C17.3655 39.4566 18.2693 39.5927 19.0651 39.8021H25.825V42.7476L22.6353 42.9884ZM31.9255 36.6891C29.9502 36.6891 28.8055 35.5444 28.8055 33.5656C28.8055 31.5903 29.9502 30.5154 31.9255 30.5154C33.9357 30.5154 35.0804 31.5903 35.0804 33.5656C35.0804 35.5444 33.9357 36.6891 31.9255 36.6891ZM27.4514 57.524V54.7879L29.2208 54.5471C29.7059 54.4773 29.7757 54.3726 29.7757 53.8526V43.655C29.7757 43.2746 29.671 43.0303 29.3255 42.9291L27.4549 42.2695L27.8353 39.4636H35.014V53.8526C35.014 54.4075 35.0489 54.4773 35.5689 54.5471L37.3383 54.7879V57.524H27.4514ZM51.0433 56.1803C49.5531 56.9063 47.3684 57.5658 45.3896 57.5658C41.2645 57.5658 39.7045 55.9046 39.7045 51.982V42.9012C39.7045 42.6918 39.7045 42.5556 39.4253 42.5556H36.9998V39.4705C40.0535 39.1216 41.2645 37.5965 41.6449 33.8169H44.9394V38.7412C44.9394 38.982 44.9394 39.0867 45.2186 39.0867H50.108V42.5556H44.9429V50.8407C44.9429 52.8859 45.428 53.6816 47.2986 53.6816C48.2723 53.6816 49.2739 53.4408 50.108 53.1267L51.0433 56.1803Z" fill="#F2F2F2"/>
<path d="M93.6501 47.0822L77.7954 31.2309C76.881 30.3166 75.4013 30.3166 74.4904 31.2309L71.1994 34.5219L75.3769 38.6959C76.3785 38.3539 77.4848 38.6121 78.2351 39.3625C78.9854 40.1163 79.2437 41.2331 78.8947 42.2382L82.9186 46.2621C83.8923 45.927 85.0161 46.1434 85.7943 46.9217C86.8797 48.007 86.8797 49.7695 85.7943 50.8548C84.702 51.9437 82.943 51.9437 81.8542 50.8583C81.0585 50.0626 80.8212 48.8691 81.2469 47.8291L77.4952 44.0774V53.9539C77.7675 54.09 78.0152 54.2645 78.2316 54.4809C79.317 55.5662 79.317 57.3287 78.2316 58.4175C77.1428 59.5064 75.3838 59.5064 74.2985 58.4175C73.2131 57.3321 73.2096 55.5697 74.2985 54.4809C74.5602 54.2191 74.8708 54.0132 75.2093 53.8736V43.9064C74.8673 43.7668 74.5567 43.5609 74.2985 43.2991C73.4748 42.4755 73.2759 41.268 73.6982 40.2559L69.5836 36.1378L58.7089 47.0089C57.7946 47.9233 57.7946 49.403 58.7089 50.3174L74.5637 66.1687C75.4781 67.083 76.9578 67.083 77.8722 66.1687L93.6501 50.3907C94.5645 49.4763 94.5645 47.9966 93.6501 47.0822Z" fill="#FF4500"/>
<rect x="1" y="1" width="98" height="98" stroke="#FF4500" stroke-width="2"/>
</svg>
