<svg width="100" height="100" viewBox="0 0 100 100" fill="none" xmlns="http://www.w3.org/2000/svg">
<path d="M49.9125 89.6589L22.6673 81.9985L17.1927 15.0962L82.1312 15.2301L76.3417 82.0063L49.9125 89.6589Z" stroke="#FF4500" stroke-width="2"/>
<path d="M49.9165 84.0643V20.6333L77.5554 20.7255L72.6271 77.4758L49.9165 84.0643Z" fill="#FF4500"/>
<path d="M46.959 28.1655H39.6511V70.3831L33.9696 69.301V63.6164L27.2029 62.5342V75.253L46.959 80.3934V28.1655ZM52.4406 28.1655H72.6671L71.3143 36.2573H60.1604V49.5357H71.3143L69.9616 76.3352L52.4406 80.3934V72.0034L64.2801 67.9452L64.9626 56.8497L52.4406 58.6635V28.1655Z" fill="#F2F2F2"/>
<rect x="1" y="1" width="98" height="98" stroke="#FF4500" stroke-width="2"/>
</svg>
