<svg width="100" height="100" viewBox="0 0 100 100" fill="none" xmlns="http://www.w3.org/2000/svg">
<path d="M50.0477 4.89246L51.9654 8.49427C52.3965 9.15904 52.8639 9.74725 53.4118 10.2952C55.0234 11.8866 56.5261 13.5868 57.908 15.3837C61.1553 19.6462 63.347 24.3842 64.9102 29.5089C65.849 32.6353 66.3566 35.8503 66.3969 39.0936C66.554 48.7992 63.2262 57.1309 56.5221 64.0565C55.4343 65.1524 54.2538 66.1636 52.9968 67.0661C52.3321 67.0661 52.0178 66.5584 51.7439 66.0871C51.2443 65.2168 50.9139 64.262 50.7648 63.2709C50.5271 62.0944 50.374 60.922 50.4506 59.7134V59.1655C50.3982 59.0406 49.814 5.17045 50.0477 4.89246Z" fill="#FF620A"/>
<path d="M50.0477 4.77565C49.9711 4.61852 49.8906 4.73536 49.81 4.81594C49.8503 5.60157 49.5723 6.3026 49.1452 6.97139C48.6738 7.63615 48.0494 8.14782 47.4209 8.69575C43.9439 11.7053 41.2043 15.3474 39.0126 19.4166C36.0957 24.8918 34.5929 30.7619 34.1699 36.9462C33.9765 39.1742 34.8749 47.0386 35.58 49.3068C37.4977 55.334 40.9384 60.3822 45.4024 64.7616C46.4982 65.8172 47.6706 66.7962 48.8793 67.7389C49.2338 67.7389 49.2701 67.4247 49.3507 67.191C49.5078 66.6914 49.6246 66.1838 49.7052 65.6681L50.4909 59.802L50.0477 4.77565Z" fill="#FF4500"/>
<path d="M51.9655 69.4431C52.042 68.5447 52.4731 67.8034 52.9445 67.058C52.4731 66.8647 52.1226 66.4739 51.8486 66.0428C51.6109 65.6318 51.4176 65.2007 51.2645 64.7495C50.7165 63.1097 50.5997 61.3814 50.4426 59.7053V58.6901C50.2492 58.8472 50.2049 60.1767 50.2049 60.3741C50.0921 62.1509 49.8544 63.9115 49.4998 65.656C49.383 66.361 49.3064 67.0661 48.8713 67.6906C48.8713 67.7671 48.8713 67.8477 48.9116 67.9645C49.6166 70.0394 49.81 72.1505 49.9269 74.306V75.0916C49.9269 76.0304 49.8866 75.8329 50.6682 76.1472C50.9824 76.264 51.3329 76.3043 51.6472 76.538C51.8849 76.538 51.9212 76.3446 51.9212 76.1834L51.8043 74.8902V71.2884C51.7681 70.6599 51.8849 70.0354 51.9655 69.4431Z" fill="#C2BFBF"/>
<path d="M18.6144 86.9203V88.6608C18.6144 88.7293 18.6144 88.8018 18.6265 88.8663C18.6467 89.0717 18.7756 89.2007 18.9609 89.2571C19.1342 89.3014 19.3114 89.3336 19.4887 89.3618C19.5935 89.3739 19.6257 89.4182 19.6378 89.531C19.6499 89.9218 19.6176 89.9662 19.2389 89.942C18.3566 89.8977 17.4743 89.8856 16.5919 89.942H16.5114C16.2374 89.9541 16.2132 89.9299 16.2132 89.6559C16.2132 89.6116 16.2253 89.5512 16.2253 89.5069C16.2253 89.4263 16.2817 89.3779 16.3623 89.3779C16.5476 89.3578 16.7168 89.3095 16.8901 89.2732C17.1278 89.2168 17.2688 89.0677 17.2889 88.826C17.3212 88.5641 17.3212 88.2861 17.3212 88.0242L17.3333 84.9542C17.3413 84.7729 17.2446 84.6037 17.0835 84.5191C16.878 84.4023 16.6564 84.3136 16.4308 84.2452C16.3623 84.225 16.2938 84.2129 16.2374 84.1767C16.0682 84.0961 16.0642 83.947 16.2253 83.8544C16.2817 83.8221 16.3542 83.798 16.4187 83.7859C17.1117 83.6811 17.7966 83.5119 18.4533 83.2702C18.5903 83.2258 18.6265 83.2379 18.6386 83.3749C18.6507 83.4555 18.6386 83.5602 18.6265 83.6368C18.6064 83.7859 18.6064 83.9349 18.6064 84.0719C18.6064 84.1283 18.6185 84.1887 18.6749 84.221C18.7313 84.2532 18.7917 84.221 18.8441 84.1888C19.0818 84.0034 19.3235 83.8342 19.5894 83.6851C19.9681 83.4797 20.367 83.2943 20.8021 83.2379C21.3299 83.1694 21.7852 83.3064 22.188 83.6489C22.3532 83.7979 22.5023 83.9672 22.6232 84.1525C22.74 84.3217 22.7521 84.3257 22.8971 84.2089C23.3322 83.8866 23.7915 83.6046 24.2831 83.3951C24.7988 83.1775 25.3225 83.1453 25.8503 83.3266C26.3902 83.52 26.7568 83.8987 26.9744 84.4144C27.1597 84.8253 27.2362 85.2524 27.2362 85.6996V88.7696C27.2362 88.9751 27.3168 89.104 27.5223 89.2047C27.7398 89.2853 27.9775 89.3336 28.2112 89.3779C28.3603 89.4102 28.3603 89.4102 28.3603 89.5633C28.3401 89.942 28.3039 89.9621 27.9373 89.942C27.0187 89.8896 26.1001 89.8896 25.1815 89.942C24.9962 89.9541 24.9962 89.9541 24.9881 89.7687V89.7123C24.976 89.4021 24.976 89.4021 25.2742 89.3336L25.5723 89.253C25.7778 89.2047 25.9268 89.0194 25.9268 88.8058L25.9591 87.9477L25.9389 85.7076C25.9309 85.5062 25.8906 85.3088 25.81 85.1235C25.524 84.4224 24.8914 84.1726 24.2871 84.2411C23.8318 84.2854 23.4289 84.4708 23.0502 84.7367C22.9697 84.7931 22.9132 84.8656 22.9213 84.9744C23.0261 85.7076 22.9535 86.4409 22.9656 87.1701V88.7615C22.9656 89.0476 23.0825 89.1846 23.3564 89.2571L23.8842 89.3739C23.9648 89.386 24.0131 89.4182 24.0131 89.5109V89.5915C24.001 89.9138 23.9809 89.9259 23.6586 89.9259C22.74 89.8816 21.8295 89.8936 20.923 89.9259C20.6128 89.938 20.5886 89.9057 20.6007 89.5915C20.6128 89.4061 20.6329 89.3981 20.8061 89.3618L21.1849 89.2933C21.5193 89.2248 21.6401 89.1 21.6643 88.7414L21.6965 87.9719L21.6764 85.6714C21.6562 85.3853 21.5958 85.1114 21.4387 84.8495C21.209 84.4265 20.8505 84.2089 20.3589 84.1888C19.8634 84.1565 19.4323 84.3378 19.0173 84.5675C18.7313 84.7367 18.6064 84.9341 18.6265 85.2685V86.9405L18.6144 86.9203ZM40.185 86.9888V88.6004C40.185 88.7172 40.1931 88.83 40.2052 88.9428C40.2132 89.1 40.3301 89.2289 40.4791 89.2651C40.6766 89.3215 40.878 89.3538 41.0835 89.3699C41.2003 89.382 41.2205 89.4263 41.2325 89.5189V89.5995C41.2205 89.9984 41.1761 90.0467 40.7853 90.0226C39.9151 89.9662 39.0449 89.9782 38.1787 90.0226L37.8443 90.0346C37.7758 90.0346 37.7637 90.0024 37.7395 89.9541C37.7073 89.7969 37.7073 89.6318 37.7395 89.4746C37.7516 89.4061 37.7959 89.3941 37.8684 89.3699C38.0376 89.3497 38.1787 89.3135 38.3358 89.2893C38.6218 89.2208 38.7266 89.104 38.7346 88.8099L38.7669 87.847V85.0308C38.7669 84.8253 38.6863 84.6964 38.505 84.6078C38.2995 84.4909 38.082 84.4144 37.8523 84.3338C37.7838 84.3136 37.7153 84.2895 37.6589 84.2532C37.5099 84.1485 37.4897 84.0034 37.6388 83.8866C37.7033 83.8342 37.7838 83.802 37.8684 83.7979C38.6017 83.6811 39.3108 83.524 39.9997 83.246C40.0803 83.2138 40.1165 83.2339 40.1488 83.3024C40.181 83.3709 40.1931 83.4515 40.181 83.532L40.1488 84.0719C40.1488 84.1404 40.1165 84.2411 40.1689 84.2653C40.2374 84.3096 40.2858 84.2089 40.3422 84.1847C40.6806 83.9027 41.0512 83.661 41.4541 83.4756C41.8087 83.3064 42.1753 83.2017 42.5863 83.2258C43.3558 83.2702 43.9037 83.661 44.2582 84.3378C44.4436 84.6924 44.5201 85.0832 44.5564 85.482L44.5886 86.32L44.6007 88.8502C44.6128 89.0435 44.6813 89.1725 44.8747 89.241C45.0761 89.3054 45.2816 89.3578 45.4911 89.39C45.6764 89.4102 45.6845 89.4464 45.6965 89.6197V89.6761C45.6764 90.0669 45.6522 90.0749 45.2614 90.0548C44.4073 90.0105 43.5532 90.0105 42.6991 90.0548C42.5822 90.0669 42.4694 90.0548 42.3647 90.0669C42.2962 90.0669 42.2478 90.0548 42.2357 89.9863C42.2156 89.8372 42.1914 89.6882 42.2237 89.531C42.2357 89.4625 42.268 89.4263 42.3526 89.4142L42.8804 89.3336C43.0657 89.2893 43.1664 89.1644 43.1906 88.9992L43.2107 88.6769L43.1986 86.2838C43.1986 86.0098 43.1866 85.7318 43.1302 85.4619C42.9932 84.8737 42.546 84.4587 41.9416 84.3983C41.4138 84.3418 40.9384 84.4788 40.4993 84.7649C40.2817 84.9019 40.1891 85.0993 40.1891 85.337V87.0654C40.1891 87.0331 40.1891 87.0331 40.2012 87.0331L40.185 86.9888Z" fill="#F2F2F2"/>
<path d="M73.7053 83.7537C73.5764 82.9197 73.2702 82.1743 72.7303 81.5216C72.263 80.9455 71.6546 80.4983 70.9657 80.2163C70.2445 79.9182 69.475 79.8255 68.6974 79.8054C68.3751 79.7933 64.0038 79.8618 63.6815 79.8054C63.6009 79.7933 63.5445 79.8174 63.4961 79.8859C63.4397 79.9665 63.3793 80.0592 63.3471 80.1478C63.2101 80.458 63.2101 80.4339 63.5405 80.4822C63.8144 80.5265 64.0803 80.5507 64.3422 80.6313C64.5799 80.7119 64.7531 80.8488 64.8096 81.1107C64.8297 81.2396 64.8539 85.2645 64.8539 87.1419L64.8096 88.4835C64.7975 88.5883 64.7894 88.689 64.7531 88.7817C64.7088 88.9187 64.6242 89.0315 64.4913 89.0919C64.3382 89.1604 64.177 89.2087 64.0118 89.2208C63.7016 89.2531 63.6573 89.2652 63.5566 89.6116L63.5243 89.7406C63.5042 89.8896 63.5123 89.9138 63.6613 89.9138L67.0859 89.946L68.4275 89.9259L69.3541 89.8091C70.4057 89.6157 71.3444 89.1806 72.1461 88.4795C72.6014 88.0766 72.9761 87.5851 73.246 87.0372C73.5683 86.3966 73.7013 85.6956 73.7416 84.9905C73.798 84.5755 73.7778 84.1646 73.7053 83.7537ZM72.0494 85.3773C72.0051 86.1105 71.8561 86.8196 71.4773 87.4602C70.9979 88.2942 70.309 88.8784 69.3582 89.0839C68.9472 89.1644 68.5363 89.2128 68.1052 89.1523C67.7949 89.1201 67.5008 89.0839 67.2108 88.9791C66.6951 88.7938 66.5097 88.4755 66.5017 87.9759L66.4896 81.0744C66.4896 80.6635 66.6749 80.5708 66.969 80.5588C67.4162 80.5265 67.8755 80.5386 68.3187 80.5789C68.7941 80.6232 69.2615 80.7401 69.7046 80.9133C70.035 81.0503 70.3372 81.2396 70.6111 81.4733C71.2276 82.0011 71.6385 82.6618 71.8641 83.4394C72.0494 84.0679 72.0817 84.7125 72.0494 85.3531V85.3773ZM83.2215 86.5013C83.2215 86.4329 83.2215 86.3724 83.2094 86.308C83.1047 85.6795 82.7743 85.196 82.2586 84.8294C81.9242 84.5917 81.5495 84.4305 81.1587 84.3137C81.0902 84.2935 81.0298 84.2693 80.9653 84.2573C80.9774 84.2009 81.0097 84.1888 81.0459 84.1767C81.2756 84.0598 81.4931 83.939 81.6865 83.7657C82.0411 83.4676 82.2747 83.105 82.3956 82.6538C82.4641 82.4161 82.4641 82.1743 82.4399 81.9205C82.4037 81.3242 82.0934 80.7763 81.6059 80.4298C81.0782 80.039 80.4617 79.8779 79.8211 79.8698C78.5843 79.8497 77.3353 79.8698 76.1025 79.8698C75.7479 79.8698 75.3934 79.89 75.0228 79.8376C74.9543 79.8255 74.8535 79.8053 74.8052 79.8819C74.7246 80.031 74.6199 80.18 74.5876 80.3493C74.5755 80.4298 74.5997 80.4782 74.6924 80.4862L75.482 80.6031C75.7923 80.6474 76.0098 80.8206 76.034 81.0986C76.0541 81.288 76.0662 81.4814 76.0662 81.6707L76.0461 83.8101L76.034 88.0444C76.034 88.2942 76.0018 88.54 75.9534 88.7897C75.9292 88.9549 75.8124 89.0879 75.6553 89.1322C75.4256 89.2007 75.2081 89.2692 74.9663 89.2692C74.8334 89.2571 74.7125 89.3377 74.6682 89.4626C74.6239 89.5673 74.5876 89.6801 74.5635 89.7849C74.5433 89.9219 74.5755 89.9702 74.7125 89.9541C74.8173 89.942 78.5923 90.0347 79.3054 89.9662C79.7285 89.9219 80.1435 89.8614 80.5625 89.7365C81.2836 89.5069 81.9484 89.1765 82.4762 88.6125C82.9113 88.1572 83.1651 87.6053 83.1853 86.9647C83.2215 86.8116 83.2215 86.6625 83.2215 86.5013ZM77.6697 81.8077L77.702 80.8891C77.702 80.7159 77.7704 80.6393 77.9397 80.6031C78.2136 80.5467 78.4916 80.5708 78.7615 80.5829C79.0355 80.6031 79.3014 80.6393 79.5754 80.7199C80.079 80.869 80.4698 81.155 80.6994 81.6385C80.8042 81.8561 80.8606 82.0938 80.8606 82.3395C80.8727 82.6618 80.8485 82.968 80.7236 83.2782C80.5302 83.7013 80.22 83.9793 79.7728 84.0558C79.3256 84.1364 78.0565 84.1001 77.8591 84.1001C77.6858 84.1001 77.6737 84.08 77.6737 83.9068V82.827C77.6455 82.4926 77.6456 82.1582 77.6617 81.8198L77.6697 81.8077ZM81.3884 87.9638C81.195 88.4795 80.8364 88.8341 80.3368 89.0274C80.0629 89.1322 79.7849 89.1967 79.4988 89.1765C79.1443 89.1644 78.7898 89.1765 78.4352 89.108C77.9558 89.0033 77.7342 88.548 77.702 88.2136C77.6456 87.6294 77.6818 87.0332 77.6697 86.6021V85.0912C77.6697 84.9059 77.6899 84.8535 77.8873 84.8535L78.967 84.8656L79.7003 84.9462C80.216 85.063 80.6833 85.2564 81.0499 85.6553C81.3481 85.9776 81.5052 86.3644 81.5455 86.7874C81.5777 87.1863 81.5576 87.5771 81.4085 87.9558L81.3884 87.9638Z" fill="#F2F2F2"/>
<path d="M52.3039 84.5191L52.602 84.5635C52.9243 84.5755 53.303 84.4587 53.4158 84.0115C53.4763 83.798 53.4763 83.5724 53.4158 83.3588C53.3473 83.3588 53.3111 83.4152 53.2788 83.4394C53.1056 83.5764 52.9122 83.657 52.7067 83.6771C52.2958 83.7214 51.8849 83.6973 51.482 83.5482L50.922 83.3548C50.5312 83.2259 50.1202 83.1735 49.7093 83.1936C49.1251 83.238 48.5771 83.4313 48.0615 83.7093C47.5095 84.0075 47.1227 84.4547 46.9374 85.059C46.8326 85.4136 46.8206 85.7802 46.8689 86.1468C46.9857 86.9808 47.4209 87.565 48.1984 87.8752C48.2428 87.8873 48.279 87.9074 48.3274 87.9195C48.4321 87.9759 48.4442 88.0364 48.3475 88.1129L48.0615 88.3063L47.3725 88.7293C47.1993 88.8341 47.1791 88.9146 47.2355 89.0959C47.304 89.3095 47.4289 89.4988 47.6022 89.6479C47.7593 89.7849 47.9366 89.8896 48.1299 89.9702C48.2589 90.0266 48.2589 90.0508 48.142 90.1555L47.4894 90.6229C47.2718 90.7921 47.0542 90.9573 46.8729 91.1748C46.6151 91.4488 46.5103 91.8356 46.599 92.2022C46.6836 92.6011 46.889 92.9596 47.1952 93.2296C47.4934 93.5076 47.856 93.701 48.2468 93.8017C48.8874 93.987 49.5521 93.9951 50.2048 93.8702C51.1435 93.6969 51.9654 93.282 52.606 92.5769C53.0532 92.1095 53.3151 91.5576 53.3393 90.9009C53.3917 90.1153 52.8679 89.4102 52.1024 89.2289L51.486 89.1121L49.5965 88.9429C49.391 88.9308 49.1855 88.8985 49.0123 88.7938C48.7947 88.6568 48.7383 88.3949 48.8753 88.2217C48.98 88.0928 49.1049 88.0162 49.2661 88.0041L49.6327 87.9719C50.3579 87.8994 51.0348 87.5892 51.5666 87.0896C51.8486 86.8277 52.0541 86.4893 52.1508 86.1146C52.2877 85.619 52.2877 85.1114 52.1709 84.6078C52.1387 84.4789 52.1508 84.4708 52.3079 84.4909L52.3039 84.5191ZM49.4957 90.22C49.5642 90.2321 49.6327 90.22 49.7012 90.22C50.1806 90.2401 50.6762 90.2764 51.1435 90.4053C51.2966 90.4496 51.4497 90.5101 51.5907 90.5786C52.046 90.8284 52.2193 91.2675 52.1628 91.7349C52.0944 92.2506 51.8083 92.6172 51.3611 92.8589C51.063 93.0281 50.7326 93.0966 50.3861 93.1329C50.2572 93.145 50.1484 93.1329 50.0195 93.1329C49.6206 93.145 49.2298 93.1007 48.8511 92.9395C48.5892 92.8347 48.3717 92.6897 48.1783 92.4842C47.7794 92.0854 47.5901 91.3521 48.1904 90.7558C48.561 90.4134 48.972 90.1757 49.4957 90.22ZM50.8051 86.6504C50.5674 87.2547 50.0356 87.4401 49.5118 87.3595C49.0324 87.291 48.6779 87.0251 48.4482 86.59C48.1501 86.0058 48.0695 85.4015 48.2428 84.773C48.3717 84.3056 48.6537 83.9511 49.1613 83.8665C49.8019 83.7496 50.4143 83.9833 50.7407 84.6239C50.9099 84.9341 50.9784 85.3128 50.9784 85.8487C50.9663 86.0662 50.922 86.3603 50.8051 86.6504ZM36.3817 85.8688C36.277 85.2524 36.0473 84.6884 35.6243 84.221C34.9958 83.52 34.1941 83.2178 33.2876 83.2138C32.4979 83.2017 31.7526 83.4313 31.0918 83.8423C30.4391 84.2331 29.9597 84.8576 29.7502 85.5949C29.5568 86.2556 29.5649 86.9365 29.718 87.6093C30.1168 89.4183 31.5149 90.1958 33.1868 90.083C33.6824 90.0508 34.1497 89.8896 34.5929 89.6721C35.2537 89.3619 35.7371 88.8703 36.0715 88.2217C36.3334 87.6818 36.4502 87.1097 36.4381 86.457L36.3817 85.8688ZM34.7581 88.411C34.5889 88.9388 34.1296 89.3175 33.5776 89.3739C33.074 89.4424 32.6027 89.3175 32.1836 89.0194C31.8775 88.7938 31.6317 88.4997 31.4625 88.1612C30.9951 87.1983 30.9105 86.1952 31.1523 85.1638C31.2288 84.8415 31.394 84.5554 31.6317 84.3298C32.0547 83.939 32.5503 83.8503 33.0982 83.9632C33.626 84.08 34.0248 84.362 34.3512 84.7971C34.6816 85.2323 34.8306 85.7359 34.9233 86.2637C34.9676 86.5255 34.9676 86.8035 34.9797 86.9727C34.9797 87.5247 34.9354 87.9759 34.7621 88.4151L34.7581 88.411ZM61.393 85.9615C61.3124 85.3007 61.0586 84.6884 60.5913 84.1888C59.9748 83.516 59.1731 83.2259 58.2787 83.2138C57.5092 83.2017 56.8001 83.4193 56.1474 83.798C55.4142 84.2331 54.9105 84.8495 54.7172 85.6875C54.4875 86.6021 54.5802 87.565 54.9911 88.411C55.3698 89.2128 56.0104 89.7285 56.8605 89.9581C57.7992 90.2079 58.6896 90.0951 59.5639 89.6721C60.3213 89.3054 60.8572 88.7334 61.1674 87.9558C61.3527 87.5005 61.4172 87.005 61.4293 86.4329C61.4414 86.3281 61.4131 86.1428 61.393 85.9615ZM59.8137 88.262C59.6284 88.8784 59.2416 89.2813 58.5889 89.3739C58.1095 89.4424 57.6502 89.3296 57.2392 89.0516C56.8847 88.8139 56.6349 88.4916 56.4496 88.1129C56.2441 87.714 56.1273 87.291 56.0829 86.8559C56.0145 86.316 56.0145 85.7923 56.1393 85.2524C56.1635 85.1436 56.1958 85.0429 56.2441 84.9422C56.5664 84.1404 57.2715 83.7738 58.1135 83.9591C58.6735 84.088 59.0965 84.3942 59.4189 84.8656C59.7291 85.3209 59.8741 85.8285 59.9466 86.3724C59.9789 86.59 59.991 86.8196 59.9789 87.013C59.9789 87.4602 59.9466 87.8712 59.8097 88.27L59.8137 88.262Z" fill="#F2F2F2"/>
<rect x="1" y="1" width="98" height="98" stroke="#FF4500" stroke-width="2"/>
</svg>
