<svg width="100" height="100" viewBox="0 0 100 100" fill="none" xmlns="http://www.w3.org/2000/svg">
<path fill-rule="evenodd" clip-rule="evenodd" d="M12.7516 65.6223H15.4299V55.072L19.5602 64.2726C20.0513 65.3749 20.705 65.7636 22.0123 65.7636C23.3196 65.7636 23.9768 65.3749 24.4644 64.2726L28.5947 55.072V65.6223H31.2553V55.0932C31.2553 54.0721 30.8454 53.5809 30.008 53.3124C27.9835 52.68 26.6126 53.2312 26.0013 54.6021L21.9522 63.6613L18.0268 54.6021C17.4332 53.2312 16.0446 52.68 14.0201 53.3124C13.1615 53.5774 12.7516 54.0685 12.7516 55.0932V65.6223ZM33.4848 57.0329H36.1418V62.8416C36.1206 63.1667 36.2442 63.9051 37.7176 63.9263C38.4525 63.9475 43.4627 63.9263 43.5051 63.9263V57.0153H46.1833C46.2045 57.0153 46.1833 66.442 46.1833 66.4808C46.2045 68.8128 43.3001 69.3004 41.9716 69.3428H33.5448V67.5444C33.5448 67.5444 41.9469 67.5656 41.9681 67.5444C43.6853 67.3818 43.4803 66.5232 43.4803 66.2371V65.541H37.8201C35.1807 65.5021 33.506 64.3538 33.4848 63.0253C33.4848 62.9017 33.5448 57.0965 33.4848 57.0329ZM90.9177 50.348C89.2819 50.3056 88.0346 50.4505 86.9499 50.9204C86.6425 51.0441 86.1726 51.0441 86.1125 51.4327C86.2751 51.5953 86.3175 51.8603 86.4376 52.0864C86.7026 52.4962 87.1336 53.0474 87.5223 53.3336C87.9322 53.6622 88.3597 53.9873 88.8119 54.2735C89.6316 54.7646 90.5291 55.0296 91.2852 55.5207C91.7551 55.8069 92.2038 56.1744 92.6561 56.5029C92.861 56.6655 93.0236 56.9128 93.2886 57.0153V56.9764C93.1472 56.7927 93.1048 56.5277 92.9812 56.3228L92.3664 55.708C91.7728 54.9306 91.0167 54.2346 90.2182 53.6622C89.5857 53.2135 88.1547 52.5775 87.8862 51.8426C87.865 51.8214 87.8438 51.8214 87.8438 51.8002C88.2925 51.7366 88.8261 51.5741 89.2359 51.4716C89.932 51.2879 90.5644 51.3303 91.2817 51.1465C91.6103 51.0441 91.9353 50.9628 92.2639 50.8603V50.6766C91.8965 50.3092 91.6491 49.7968 91.2428 49.4718C90.2005 48.5708 89.0557 47.6946 87.8897 46.9561C87.2361 46.525 86.4376 46.2601 85.7415 45.9138C85.5154 45.8113 85.1056 45.7513 84.943 45.5463C84.5756 45.0976 84.3918 44.504 84.1056 43.9705C83.505 42.8045 82.9467 41.6174 82.4309 40.4125C82.0846 39.614 81.8373 38.819 81.4098 38.0806C79.2828 34.6039 77.0144 32.498 73.4776 30.4346C72.7215 30.0036 71.8205 29.8198 70.8595 29.5972C70.3472 29.5548 69.8384 29.5372 69.3261 29.4948C69.0187 29.3711 68.6936 28.9825 68.3862 28.7987C67.2202 28.0638 64.2134 26.4491 63.3549 28.5726C62.8037 29.9011 64.1746 31.2119 64.6622 31.8868C65.012 32.3567 65.4395 32.8902 65.6833 33.4202C65.8458 33.7665 65.867 34.1163 66.0083 34.4837C66.3546 35.4024 66.6408 36.4058 67.0718 37.2432C67.298 37.6743 67.5418 38.123 67.828 38.5116C67.9905 38.7378 68.2979 38.8402 68.3403 39.2077C68.0541 39.6175 68.0329 40.2288 67.8704 40.7411C67.1531 43.0519 67.4216 45.8926 68.4851 47.6098C68.8137 48.1221 69.5698 49.2456 70.6334 48.8146C71.552 48.4259 71.3471 47.2812 71.6156 46.2388C71.6792 46.0127 71.6368 45.8502 71.7569 45.6877V45.7301C72.0219 46.3024 72.3081 46.8536 72.5943 47.4048C73.2091 48.4083 74.3115 49.4718 75.2513 50.1643C75.7212 50.5317 76.1099 51.1677 76.7423 51.3691V51.3267H76.6823C76.5586 51.143 76.3749 51.0617 76.2336 50.9169C75.8661 50.5494 75.4562 50.0972 75.1488 49.6908C74.3115 48.5461 73.5554 47.2776 72.8593 45.9703C72.5307 45.3379 72.2445 44.6418 71.9795 44.0094C71.8771 43.7656 71.8771 43.3946 71.6509 43.2533C71.3435 43.7232 70.916 44.1118 70.6687 44.663C70.3012 45.5428 70.2412 46.624 70.1175 47.7299C70.0362 47.7723 70.0539 47.7511 70.015 47.7899C69.3614 47.6274 69.1353 46.9526 68.8915 46.3802C68.2979 44.928 68.1742 42.5961 68.7077 40.9213C68.8491 40.4903 69.4851 39.1441 69.2201 38.7342C69.0964 38.3456 68.7077 38.1018 68.4851 37.7944C68.1989 37.4269 67.934 36.9358 67.729 36.5047C67.2379 35.36 67.0118 34.0915 66.4818 32.9468C66.2168 32.3956 65.8069 31.8409 65.4607 31.3709C65.072 30.8197 64.641 30.4311 64.3371 29.7774C64.2346 29.5513 64.0933 29.1838 64.2346 28.9401C64.2947 28.7775 64.3583 28.7139 64.5208 28.6539C64.7858 28.4489 65.5419 28.7351 65.8281 28.8376C66.563 29.1662 67.199 29.4524 67.8315 29.8799C68.1389 30.0848 68.4463 30.4735 68.8137 30.576H69.2236C69.8772 30.7173 70.6122 30.6183 71.2269 30.8021C72.3116 31.1271 73.2904 31.6395 74.1701 32.2118C76.8695 33.9078 79.0566 36.321 80.5689 39.2041C80.8126 39.6741 80.9151 40.1051 81.12 40.5962C81.5511 41.5997 82.1023 42.6208 82.5298 43.5818C82.9397 44.5641 83.3672 45.5463 83.9608 46.3413C84.2894 46.7724 85.5154 46.995 86.0666 47.2211C86.4553 47.3836 87.0877 47.5674 87.4587 47.7935C88.1724 48.2033 88.8473 48.7121 89.5221 49.1856C89.8542 49.4082 90.8754 49.917 90.9177 50.348Z" fill="#FF4500"/>
<path fill-rule="evenodd" clip-rule="evenodd" d="M69.8374 32C69.5547 32 69.2721 32.0353 69 32.1025V32.1449H69.0601C69.2226 32.4735 69.5088 32.696 69.7137 32.9822C69.855 33.3108 70.0211 33.6359 70.1624 33.9645L70.2225 33.9044C70.5087 33.7207 70.6324 33.3921 70.6324 32.8833C70.5299 32.7596 70.5087 32.6183 70.4062 32.4735C70.2684 32.265 70.0211 32.1625 69.8374 32Z" fill="#FF4500"/>
<path fill-rule="evenodd" clip-rule="evenodd" d="M48.2467 65.6222H55.9139C56.8148 65.6222 57.6911 65.4385 58.3871 65.1099C59.5319 64.5799 60.1043 63.8626 60.1043 62.9228V60.9618C60.1043 60.2057 59.4506 59.4708 58.2034 59.0009C57.5286 58.7359 56.7088 58.6122 55.9139 58.6122H52.6845C51.5998 58.6122 51.091 58.2836 50.9673 57.5699C50.9461 57.4886 50.9461 57.4074 50.9461 57.3261V56.1142C50.9461 56.0329 50.9461 55.9729 50.9673 55.8881C51.091 55.3369 51.3772 55.1708 52.317 55.0896C52.3983 55.0896 52.5007 55.0684 52.582 55.0684H60.2068V53.2911H52.7021C51.6174 53.2911 51.0662 53.3724 50.5539 53.5173C48.9604 54.0296 48.2644 54.8069 48.2644 56.1743V57.7289C48.2644 58.9337 49.6353 59.9584 51.9036 60.2022C52.1686 60.2022 52.4159 60.2234 52.6809 60.2234H55.4404C55.5429 60.2234 55.6453 60.2234 55.7266 60.2446C56.5852 60.3258 56.9314 60.4707 57.2 60.7746C57.3413 60.9371 57.4049 61.082 57.4049 61.2657V62.8203C57.4049 63.004 57.2812 63.2514 57.0162 63.4528C56.7901 63.6577 56.4014 63.7814 55.8927 63.8202C55.7902 63.8202 55.7089 63.8414 55.6065 63.8414H48.2467V65.6222ZM76.7459 62.5129C76.7459 64.3537 78.0956 65.3749 80.8551 65.5798C81.0989 65.601 81.3674 65.6222 81.6112 65.6222H88.5646V63.8414H81.5723C79.9965 63.8414 79.4064 63.4528 79.4064 62.5129V53.2911H76.7494L76.7459 62.5129ZM61.8003 62.6154V56.2767C61.8003 54.662 62.9238 53.6798 65.1745 53.3724C65.4006 53.33 65.6656 53.33 65.8918 53.33H70.962C71.2058 53.33 71.4319 53.33 71.6969 53.3724C73.9264 53.6798 75.0711 54.662 75.0711 56.2767V62.6154C75.0711 63.9262 74.58 64.6187 73.4776 65.071L76.117 67.4418H73.0113L70.8842 65.5409L68.736 65.6646H65.8953C65.4042 65.6646 64.8918 65.6045 64.3195 65.4385C62.62 64.9862 61.8003 64.0888 61.8003 62.6154ZM64.6834 62.4529C64.6834 62.5553 64.7046 62.6366 64.7258 62.7391C64.8883 63.474 65.5844 63.8838 66.6267 63.8838H69.0611L66.8316 61.8805H69.9373L71.8806 63.6188C72.2304 63.4351 72.4742 63.1489 72.5555 62.7814C72.5767 62.679 72.5767 62.5977 72.5767 62.5165V56.4251C72.5767 56.3615 72.5767 56.2838 72.5555 56.199C72.3929 55.503 71.6969 55.1178 70.6758 55.1178H66.6267C65.4395 55.1178 64.6834 55.6302 64.6834 56.4251V62.4529ZM89.7942 65.6222H90.1829V64.1488H90.7128V63.8414H89.2607V64.1488H89.7907L89.7942 65.6222ZM92.7763 65.6222H93.1225V63.8414H92.5925L92.1226 65.0675L91.6527 63.8414H91.1015V65.6222H91.469V64.2725L91.9813 65.6222H92.2463L92.7586 64.2725H92.7798L92.7763 65.6222Z" fill="#F2F2F2"/>
<rect x="1" y="1" width="98" height="98" stroke="#FF4500" stroke-width="2"/>
</svg>
