<svg width="100" height="100" viewBox="0 0 100 100" fill="none" xmlns="http://www.w3.org/2000/svg">
<g clip-path="url(#clip0_104_164)">
<path d="M9.10181 52.0132C9.10181 64.1306 27.6422 73.9543 50.5107 73.9543C73.3792 73.9543 91.9197 64.1306 91.9197 52.0132C91.9197 39.8958 73.3792 30.0721 50.5107 30.0721C27.6422 30.0721 9.10181 39.8958 9.10181 52.0132Z" stroke="#FF4500" stroke-width="2.5" stroke-miterlimit="10"/>
<mask id="mask0_104_164" style="mask-type:luminance" maskUnits="userSpaceOnUse" x="9" y="30" width="83" height="44">
<path d="M9.10181 52.0132C9.10181 64.1306 27.6422 73.9543 50.5107 73.9543C73.3792 73.9543 91.9197 64.1306 91.9197 52.0132C91.9197 39.8958 73.3792 30.0721 50.5107 30.0721C27.6422 30.0721 9.10181 39.8958 9.10181 52.0132Z" fill="white"/>
</mask>
<g mask="url(#mask0_104_164)">
<path d="M9.10181 52.0132C9.10181 64.1306 27.6422 73.9543 50.5107 73.9543C73.3792 73.9543 91.9197 64.1306 91.9197 52.0132C91.9197 39.8958 73.3792 30.0721 50.5107 30.0721C27.6422 30.0721 9.10181 39.8958 9.10181 52.0132Z" stroke="#FF4500" stroke-width="2.5" stroke-miterlimit="10"/>
</g>
<path d="M9.10181 52.0132C9.10181 64.1306 27.6422 73.9543 50.5107 73.9543C73.3792 73.9543 91.9197 64.1306 91.9197 52.0132C91.9197 39.8958 73.3792 30.0721 50.5107 30.0721C27.6422 30.0721 9.10181 39.8958 9.10181 52.0132Z" stroke="#FF4500" stroke-width="2.5" stroke-miterlimit="10"/>
<mask id="mask1_104_164" style="mask-type:luminance" maskUnits="userSpaceOnUse" x="-17" y="13" width="135" height="78">
<path d="M-16.3817 14.32V89.7064H117.403V14.32H-16.3817Z" fill="white" stroke="white"/>
</mask>
<g mask="url(#mask1_104_164)">
<path d="M35.9251 53.9282L35.9251 53.9282L35.9217 53.9309C34.9378 54.6962 33.4548 55.0322 31.6011 55.0322H29.2499H28.6441L28.7589 54.4374L30.3614 46.1378L30.4396 45.7326H30.8523H33.7427C34.5985 45.7326 35.3373 45.8059 35.9415 45.9639C36.5387 46.12 37.0468 46.3698 37.3919 46.7558C37.7429 47.1331 37.9212 47.6452 37.9821 48.2209C38.0434 48.8002 37.9906 49.4832 37.843 50.2505L37.8424 50.2534C37.5159 51.8981 36.8936 53.1614 35.9251 53.9282ZM26.4528 42.3564L22.2385 64.2331H26.8953L27.9503 58.7979L28.0289 58.3932H28.4412H32.1403C33.9371 58.3932 35.4222 58.1996 36.5524 57.8295L36.5541 57.829C37.6912 57.4612 38.7507 56.8227 39.689 55.9346L39.6889 55.9345L39.6949 55.929C40.4818 55.2082 41.135 54.391 41.6153 53.5085L41.6169 53.5055C42.0992 52.6335 42.4561 51.6432 42.6563 50.5768L42.6567 50.5748C43.1629 47.9372 42.7417 45.9238 41.5269 44.523L41.5251 44.5209C40.3215 43.1173 38.3467 42.3564 35.5548 42.3564H26.4528Z" fill="#F2F2F2" stroke="#FF4500"/>
<mask id="path-7-inside-1_104_164" fill="white">
<path d="M31.2251 46.6853H33.7411C35.7479 46.6853 36.4518 47.1229 36.6914 47.3945C37.0808 47.8321 37.1556 48.7677 36.901 50.0805C36.6165 51.5443 36.0923 52.5855 35.3435 53.174C34.5648 53.7776 33.3068 54.0794 31.6145 54.0794H29.8024L31.2251 46.6853ZM35.5532 41.4037H26.4028C25.9685 41.4037 25.6091 41.7055 25.5192 42.1431L21.281 64.1446C21.236 64.4162 21.2959 64.6878 21.4756 64.8991C21.6404 65.1104 21.895 65.2311 22.1646 65.2311H26.927C27.3613 65.2311 27.7207 64.9293 27.8105 64.4917L28.799 59.3761H32.1087C33.9957 59.3761 35.5831 59.1648 36.8262 58.7574C38.0991 58.3349 39.2822 57.6256 40.3306 56.6448C41.1992 55.845 41.9031 54.9547 42.4422 53.9738C42.9813 53.008 43.3707 51.9215 43.5954 50.7596C44.1495 47.8774 43.7002 45.5686 42.2475 43.8936C40.8098 42.2487 38.5484 41.4037 35.5532 41.4037ZM28.7091 54.9849H31.5995C33.5164 54.9849 34.9392 54.6227 35.8827 53.8984C36.8262 53.174 37.4552 51.9517 37.7846 50.2465C38.0991 48.6168 37.9494 47.4549 37.3503 46.7909C36.7513 46.1118 35.5532 45.7798 33.7411 45.7798H30.4913L28.7091 54.9849ZM35.5532 42.3091C38.3088 42.3091 40.3156 43.0334 41.5736 44.4972C42.8316 45.9458 43.221 47.983 42.7118 50.5936C42.5021 51.665 42.1576 52.6459 41.6634 53.5362C41.1692 54.4265 40.5253 55.2414 39.7315 55.9808C38.788 56.8711 37.7247 57.52 36.5716 57.8973C35.3885 58.2594 33.9058 58.4556 32.1087 58.4556H28.0352L26.912 64.3106H22.1646L26.4028 42.3091H35.5532Z"/>
</mask>
<path d="M31.2251 46.6853H33.7411C35.7479 46.6853 36.4518 47.1229 36.6914 47.3945C37.0808 47.8321 37.1556 48.7677 36.901 50.0805C36.6165 51.5443 36.0923 52.5855 35.3435 53.174C34.5648 53.7776 33.3068 54.0794 31.6145 54.0794H29.8024L31.2251 46.6853ZM35.5532 41.4037H26.4028C25.9685 41.4037 25.6091 41.7055 25.5192 42.1431L21.281 64.1446C21.236 64.4162 21.2959 64.6878 21.4756 64.8991C21.6404 65.1104 21.895 65.2311 22.1646 65.2311H26.927C27.3613 65.2311 27.7207 64.9293 27.8105 64.4917L28.799 59.3761H32.1087C33.9957 59.3761 35.5831 59.1648 36.8262 58.7574C38.0991 58.3349 39.2822 57.6256 40.3306 56.6448C41.1992 55.845 41.9031 54.9547 42.4422 53.9738C42.9813 53.008 43.3707 51.9215 43.5954 50.7596C44.1495 47.8774 43.7002 45.5686 42.2475 43.8936C40.8098 42.2487 38.5484 41.4037 35.5532 41.4037ZM28.7091 54.9849H31.5995C33.5164 54.9849 34.9392 54.6227 35.8827 53.8984C36.8262 53.174 37.4552 51.9517 37.7846 50.2465C38.0991 48.6168 37.9494 47.4549 37.3503 46.7909C36.7513 46.1118 35.5532 45.7798 33.7411 45.7798H30.4913L28.7091 54.9849ZM35.5532 42.3091C38.3088 42.3091 40.3156 43.0334 41.5736 44.4972C42.8316 45.9458 43.221 47.983 42.7118 50.5936C42.5021 51.665 42.1576 52.6459 41.6634 53.5362C41.1692 54.4265 40.5253 55.2414 39.7315 55.9808C38.788 56.8711 37.7247 57.52 36.5716 57.8973C35.3885 58.2594 33.9058 58.4556 32.1087 58.4556H28.0352L26.912 64.3106H22.1646L26.4028 42.3091H35.5532Z" fill="#F2F2F2"/>
<path d="M31.2251 46.6853L30.2431 46.4963L30.3992 45.6853H31.2251V46.6853ZM36.6914 47.3945L35.9443 48.0592L35.9415 48.056L36.6914 47.3945ZM36.901 50.0805L37.8827 50.2709L37.8827 50.2714L36.901 50.0805ZM35.3435 53.174L35.9615 53.9603L35.9561 53.9644L35.3435 53.174ZM29.8024 54.0794V55.0794H28.5916L28.8204 53.8905L29.8024 54.0794ZM25.5192 42.1431L24.5372 41.9539L24.5396 41.942L25.5192 42.1431ZM21.281 64.1446L20.2944 63.9814L20.2965 63.9684L20.299 63.9554L21.281 64.1446ZM21.4756 64.8991L22.2373 64.2512L22.2511 64.2674L22.2642 64.2842L21.4756 64.8991ZM27.8105 64.4917L28.7924 64.6814L28.7901 64.6928L27.8105 64.4917ZM28.799 59.3761L27.8171 59.1864L27.9737 58.3761H28.799V59.3761ZM36.8262 58.7574L37.1412 59.7065L37.1376 59.7076L36.8262 58.7574ZM40.3306 56.6448L39.6473 55.9145L39.6532 55.9091L40.3306 56.6448ZM42.4422 53.9738L41.5658 53.4921L41.569 53.4864L42.4422 53.9738ZM43.5954 50.7596L44.5774 50.9484L44.5772 50.9494L43.5954 50.7596ZM42.2475 43.8936L43.0004 43.2355L43.003 43.2384L42.2475 43.8936ZM28.7091 54.9849V55.9849H27.4969L27.7273 54.7948L28.7091 54.9849ZM37.7846 50.2465L38.7665 50.436L38.7665 50.4362L37.7846 50.2465ZM37.3503 46.7909L36.6078 47.4608L36.6004 47.4524L37.3503 46.7909ZM30.4913 45.7798L29.5095 45.5898L29.6663 44.7798H30.4913V45.7798ZM41.5736 44.4972L40.8185 45.1529L40.8152 45.149L41.5736 44.4972ZM42.7118 50.5936L43.6933 50.785L43.6932 50.7857L42.7118 50.5936ZM39.7315 55.9808L39.0452 55.2535L39.0499 55.2491L39.7315 55.9808ZM36.5716 57.8973L36.8825 58.8477L36.8734 58.8507L36.8643 58.8535L36.5716 57.8973ZM28.0352 58.4556L27.0531 58.2672L27.2088 57.4556H28.0352V58.4556ZM26.912 64.3106L27.8941 64.499L27.7384 65.3106H26.912V64.3106ZM22.1646 64.3106V65.3106H20.9535L21.1826 64.1214L22.1646 64.3106ZM26.4028 42.3091L25.4208 42.1199L25.577 41.3091H26.4028V42.3091ZM31.2251 45.6853H33.7411V47.6853H31.2251V45.6853ZM33.7411 45.6853C35.8367 45.6853 36.9115 46.1324 37.4413 46.7329L35.9415 48.056C35.992 48.1133 35.6591 47.6853 33.7411 47.6853V45.6853ZM37.4385 46.7298C37.8401 47.1812 37.9911 47.7769 38.0346 48.331C38.0796 48.9035 38.0203 49.5614 37.8827 50.2709L35.9193 49.8902C36.0363 49.2868 36.0669 48.8205 36.0408 48.4876C36.0132 48.1363 35.932 48.0454 35.9443 48.0592L37.4385 46.7298ZM37.8827 50.2714C37.577 51.8439 36.9805 53.1594 35.9615 53.9603L34.7256 52.3878C35.2042 52.0117 35.656 51.2446 35.9194 49.8897L37.8827 50.2714ZM35.9561 53.9644C34.9134 54.7727 33.3814 55.0794 31.6145 55.0794V53.0794C33.2322 53.0794 34.2162 52.7826 34.7309 52.3836L35.9561 53.9644ZM31.6145 55.0794H29.8024V53.0794H31.6145V55.0794ZM28.8204 53.8905L30.2431 46.4963L32.2071 46.8742L30.7844 54.2684L28.8204 53.8905ZM35.5532 42.4037H26.4028V40.4037H35.5532V42.4037ZM26.4028 42.4037C26.4108 42.4037 26.4231 42.4022 26.4373 42.397C26.4512 42.3919 26.4637 42.3845 26.474 42.3759C26.496 42.3574 26.4994 42.341 26.4988 42.3442L24.5396 41.942C24.7204 41.0616 25.4713 40.4037 26.4028 40.4037V42.4037ZM26.5011 42.3323L22.2629 64.3337L20.299 63.9554L24.5373 41.954L26.5011 42.3323ZM22.2676 64.3078C22.2655 64.3205 22.2682 64.3182 22.2646 64.3037C22.2628 64.2964 22.2597 64.2873 22.2546 64.2773C22.2495 64.2673 22.2435 64.2584 22.2373 64.2512L20.714 65.547C20.3184 65.082 20.2082 64.5026 20.2944 63.9814L22.2676 64.3078ZM22.2642 64.2842C22.2332 64.2444 22.1929 64.2311 22.1646 64.2311V66.2311C21.5971 66.2311 21.0475 65.9763 20.6871 65.514L22.2642 64.2842ZM22.1646 64.2311H26.927V66.2311H22.1646V64.2311ZM26.927 64.2311C26.9189 64.2311 26.9066 64.2326 26.8925 64.2378C26.8786 64.2429 26.8661 64.2503 26.8558 64.2589C26.8337 64.2773 26.8303 64.2938 26.831 64.2905L28.7901 64.6928C28.6093 65.5731 27.8584 66.2311 26.927 66.2311V64.2311ZM26.8287 64.302L27.8171 59.1864L29.7808 59.5658L28.7924 64.6814L26.8287 64.302ZM28.799 58.3761H32.1087V60.3761H28.799V58.3761ZM32.1087 58.3761C33.9302 58.3761 35.4044 58.1711 36.5147 57.8071L37.1376 59.7076C35.7618 60.1586 34.0612 60.3761 32.1087 60.3761V58.3761ZM36.5111 57.8083C37.6399 57.4337 38.6989 56.802 39.6473 55.9146L41.0138 57.375C39.8656 58.4493 38.5584 59.2361 37.1412 59.7065L36.5111 57.8083ZM39.6532 55.9091C40.4466 55.1786 41.0817 54.373 41.5659 53.4921L43.3185 54.4555C42.7244 55.5363 41.9518 56.5114 41.0079 57.3804L39.6532 55.9091ZM41.569 53.4864C42.0527 52.62 42.4076 51.635 42.6135 50.5698L44.5772 50.9494C44.3338 52.208 43.91 53.3961 43.3154 54.4612L41.569 53.4864ZM42.6133 50.5708C43.1302 47.8826 42.6817 45.9205 41.492 44.5488L43.003 43.2384C44.7187 45.2166 45.1688 47.8722 44.5774 50.9484L42.6133 50.5708ZM41.4946 44.5517C40.3088 43.1951 38.3698 42.4037 35.5532 42.4037V40.4037C38.727 40.4037 41.3108 41.3024 43.0004 43.2355L41.4946 44.5517ZM28.7091 53.9849H31.5995V55.9849H28.7091V53.9849ZM31.5995 53.9849C33.4198 53.9849 34.5826 53.6358 35.2737 53.1052L36.4916 54.6916C35.2958 55.6096 33.6131 55.9849 31.5995 55.9849V53.9849ZM35.2737 53.1052C35.9474 52.588 36.4976 51.6365 36.8028 50.0568L38.7665 50.4362C38.4127 52.2669 37.7049 53.7601 36.4916 54.6916L35.2737 53.1052ZM36.8027 50.0571C37.1048 48.4917 36.8729 47.7545 36.6078 47.4608L38.0928 46.121C39.0259 47.1552 39.0934 48.7419 38.7665 50.436L36.8027 50.0571ZM36.6004 47.4524C36.3127 47.1263 35.5242 46.7798 33.7411 46.7798V44.7798C35.5822 44.7798 37.1898 45.0974 38.1002 46.1293L36.6004 47.4524ZM33.7411 46.7798H30.4913V44.7798H33.7411V46.7798ZM31.473 45.9699L29.6909 55.1749L27.7273 54.7948L29.5095 45.5898L31.473 45.9699ZM35.5532 41.3091C38.4687 41.3091 40.8124 42.0773 42.332 43.8454L40.8152 45.149C39.8188 43.9896 38.1489 43.3091 35.5532 43.3091V41.3091ZM42.3286 43.8415C43.8562 45.6006 44.2383 47.9907 43.6933 50.785L41.7303 50.4022C42.2036 47.9753 41.8069 46.291 40.8185 45.1529L42.3286 43.8415ZM43.6932 50.7857C43.4657 51.9477 43.0885 53.0295 42.5378 54.0215L40.7891 53.0509C41.2268 52.2623 41.5385 51.3823 41.7304 50.4016L43.6932 50.7857ZM42.5378 54.0215C41.9894 55.0094 41.2786 55.9063 40.4131 56.7125L39.0499 55.2491C39.7719 54.5765 40.349 53.8436 40.7891 53.0509L42.5378 54.0215ZM40.4178 56.7081C39.3769 57.6904 38.1879 58.4206 36.8825 58.8477L36.2606 56.9468C37.2616 56.6194 38.1992 56.0519 39.0452 55.2535L40.4178 56.7081ZM36.8643 58.8535C35.5597 59.2528 33.9727 59.4556 32.1087 59.4556V57.4556C33.8389 57.4556 35.2172 57.266 36.2789 56.9411L36.8643 58.8535ZM32.1087 59.4556H28.0352V57.4556H32.1087V59.4556ZM29.0173 58.644L27.8941 64.499L25.9299 64.1222L27.0531 58.2672L29.0173 58.644ZM26.912 65.3106H22.1646V63.3106H26.912V65.3106ZM21.1826 64.1214L25.4208 42.1199L27.3847 42.4983L23.1465 64.4997L21.1826 64.1214ZM26.4028 41.3091H35.5532V43.3091H26.4028V41.3091Z" fill="#FF4500" mask="url(#path-7-inside-1_104_164)"/>
<path d="M54.1091 58.4083H58.8016L60.755 48.2059L60.7553 48.2045C61.1739 46.052 60.8144 44.6061 59.8743 43.7334C58.909 42.854 57.1845 42.3564 54.432 42.3564H50.7778H50.1728L50.2868 41.7623L51.2954 36.5014H46.6927L42.4727 58.4083H47.0753L49.4333 46.2131L49.5116 45.808H49.9242H53.3238C54.7776 45.808 55.4094 46.1002 55.7154 46.4085L55.7252 46.4184L55.7344 46.4287C55.9712 46.6954 56.0589 47.0677 56.0822 47.4262C56.1065 47.7999 56.066 48.2413 55.9712 48.727C55.9711 48.7272 55.9711 48.7275 55.971 48.7277L54.1091 58.4083Z" fill="#F2F2F2" stroke="#FF4500"/>
<mask id="path-10-inside-2_104_164" fill="white">
<path d="M51.3586 35.5562H46.6411C46.2068 35.5562 45.8474 35.858 45.7575 36.2956L41.5193 58.2971C41.4744 58.5687 41.5343 58.8403 41.714 59.0516C41.8937 59.2629 42.1333 59.3836 42.4029 59.3836H47.1204C47.5547 59.3836 47.9141 59.0818 48.004 58.6442L50.2953 46.7833H53.3205C54.7282 46.7833 55.0128 47.0851 55.0278 47.1002C55.1176 47.1907 55.2224 47.6133 55.0427 48.579L53.1707 58.3122C53.1258 58.5838 53.1857 58.8554 53.3654 59.0667C53.5451 59.278 53.7847 59.3987 54.0543 59.3987H58.8467C59.281 59.3987 59.6404 59.0969 59.7302 58.6593L61.7071 48.4281C62.1714 46.0288 61.767 44.218 60.524 43.0711C59.3409 41.9695 57.349 41.4414 54.4437 41.4414H51.3287L52.2422 36.6276C52.2871 36.356 52.2272 36.0844 52.0475 35.8731C51.8828 35.6769 51.6282 35.5562 51.3586 35.5562ZM51.3586 36.4616L50.2354 42.3166H54.4437C57.0945 42.3166 58.9066 42.7844 59.91 43.7049C60.9134 44.6405 61.2129 46.1344 60.8085 48.2169L58.8317 58.448H54.0393L55.9263 48.7299C56.136 47.6283 56.0611 46.8738 55.6867 46.4664C55.3123 46.059 54.5335 45.8628 53.3205 45.8628H49.5465L47.1204 58.4631H42.4029L46.6411 36.4616H51.3586Z"/>
</mask>
<path d="M51.3586 35.5562H46.6411C46.2068 35.5562 45.8474 35.858 45.7575 36.2956L41.5193 58.2971C41.4744 58.5687 41.5343 58.8403 41.714 59.0516C41.8937 59.2629 42.1333 59.3836 42.4029 59.3836H47.1204C47.5547 59.3836 47.9141 59.0818 48.004 58.6442L50.2953 46.7833H53.3205C54.7282 46.7833 55.0128 47.0851 55.0278 47.1002C55.1176 47.1907 55.2224 47.6133 55.0427 48.579L53.1707 58.3122C53.1258 58.5838 53.1857 58.8554 53.3654 59.0667C53.5451 59.278 53.7847 59.3987 54.0543 59.3987H58.8467C59.281 59.3987 59.6404 59.0969 59.7302 58.6593L61.7071 48.4281C62.1714 46.0288 61.767 44.218 60.524 43.0711C59.3409 41.9695 57.349 41.4414 54.4437 41.4414H51.3287L52.2422 36.6276C52.2871 36.356 52.2272 36.0844 52.0475 35.8731C51.8828 35.6769 51.6282 35.5562 51.3586 35.5562ZM51.3586 36.4616L50.2354 42.3166H54.4437C57.0945 42.3166 58.9066 42.7844 59.91 43.7049C60.9134 44.6405 61.2129 46.1344 60.8085 48.2169L58.8317 58.448H54.0393L55.9263 48.7299C56.136 47.6283 56.0611 46.8738 55.6867 46.4664C55.3123 46.059 54.5335 45.8628 53.3205 45.8628H49.5465L47.1204 58.4631H42.4029L46.6411 36.4616H51.3586Z" fill="#F2F2F2"/>
<path d="M45.7575 36.2956L44.7755 36.1065L44.778 36.0945L45.7575 36.2956ZM41.5193 58.2971L40.5327 58.1339L40.5349 58.1209L40.5374 58.1079L41.5193 58.2971ZM48.004 58.6442L48.9859 58.8339L48.9835 58.8453L48.004 58.6442ZM50.2953 46.7833L49.3135 46.5936L49.47 45.7833H50.2953V46.7833ZM55.0278 47.1002L54.318 47.8046L55.0278 47.1002ZM55.0427 48.579L56.0259 48.762L56.0247 48.7679L55.0427 48.579ZM53.1707 58.3122L52.1841 58.149L52.1862 58.1361L52.1887 58.1233L53.1707 58.3122ZM59.7302 58.6593L60.7122 58.849L60.7098 58.8604L59.7302 58.6593ZM61.7071 48.4281L60.7253 48.2384L60.7253 48.2382L61.7071 48.4281ZM60.524 43.0711L59.8459 43.8061L59.8425 43.803L60.524 43.0711ZM51.3287 41.4414V42.4414H50.121L50.3462 41.2549L51.3287 41.4414ZM52.2422 36.6276L53.2288 36.7908L53.2269 36.8025L53.2247 36.8141L52.2422 36.6276ZM52.0475 35.8731L51.2858 36.5211L51.2817 36.5162L52.0475 35.8731ZM51.3586 36.4616V35.4616H52.5687L52.3407 36.65L51.3586 36.4616ZM50.2354 42.3166V43.3166H49.0253L49.2533 42.1282L50.2354 42.3166ZM59.91 43.7049L60.586 42.968L60.5919 42.9735L59.91 43.7049ZM60.8085 48.2169L59.8267 48.0272L59.8269 48.0262L60.8085 48.2169ZM58.8317 58.448L59.8135 58.6377L59.657 59.448H58.8317V58.448ZM54.0393 58.448V59.448H52.8265L53.0577 58.2574L54.0393 58.448ZM55.9263 48.7299L56.9087 48.9169L56.908 48.9205L55.9263 48.7299ZM49.5465 45.8628L48.5645 45.6737L48.7207 44.8628H49.5465V45.8628ZM47.1204 58.4631L48.1023 58.6522L47.9462 59.4631H47.1204V58.4631ZM42.4029 58.4631V59.4631H41.1919L41.4209 58.2739L42.4029 58.4631ZM46.6411 36.4616L45.6592 36.2725L45.8154 35.4616H46.6411V36.4616ZM51.3586 36.5562H46.6411V34.5562H51.3586V36.5562ZM46.6411 36.5562C46.6492 36.5562 46.6614 36.5547 46.6756 36.5495C46.6895 36.5444 46.702 36.537 46.7123 36.5284C46.7343 36.5099 46.7378 36.4935 46.7371 36.4968L44.778 36.0945C44.9587 35.2142 45.7096 34.5562 46.6411 34.5562V36.5562ZM46.7395 36.4848L42.5012 58.4863L40.5374 58.1079L44.7756 36.1065L46.7395 36.4848ZM42.5059 58.4603C42.5038 58.473 42.5066 58.4707 42.503 58.4562C42.5012 58.4489 42.498 58.4398 42.493 58.4299C42.4879 58.4198 42.4818 58.4109 42.4757 58.4037L40.9523 59.6995C40.5567 59.2345 40.4465 58.6551 40.5327 58.1339L42.5059 58.4603ZM42.4757 58.4037C42.484 58.4134 42.4813 58.4069 42.463 58.398C42.4542 58.3937 42.4437 58.3898 42.4322 58.3872C42.4207 58.3845 42.4105 58.3836 42.4029 58.3836V60.3836C41.8104 60.3836 41.3019 60.1105 40.9523 59.6995L42.4757 58.4037ZM42.4029 58.3836H47.1204V60.3836H42.4029V58.3836ZM47.1204 58.3836C47.1123 58.3836 47.1001 58.3851 47.0859 58.3903C47.072 58.3954 47.0595 58.4028 47.0492 58.4114C47.0272 58.4299 47.0237 58.4463 47.0244 58.443L48.9835 58.8453C48.8028 59.7256 48.0519 60.3836 47.1204 60.3836V58.3836ZM47.0221 58.4545L49.3135 46.5936L51.2771 46.973L48.9858 58.8339L47.0221 58.4545ZM50.2953 45.7833H53.3205V47.7833H50.2953V45.7833ZM53.3205 45.7833C54.0894 45.7833 54.6191 45.865 54.993 45.9811C55.1824 46.0399 55.3381 46.1095 55.4665 46.1864C55.5309 46.225 55.5876 46.265 55.6375 46.3054C55.6625 46.3256 55.6847 46.3452 55.7046 46.3637C55.7246 46.3825 55.7419 46.4002 55.7375 46.3958L54.318 47.8046C54.3117 47.7983 54.325 47.8119 54.3386 47.8246C54.3519 47.837 54.3652 47.8486 54.3782 47.8591C54.4041 47.8801 54.4251 47.894 54.4388 47.9022C54.4656 47.9183 54.4594 47.9096 54.3998 47.8911C54.2757 47.8525 53.9593 47.7833 53.3205 47.7833V45.7833ZM55.7375 46.3958C55.9337 46.5934 56.016 46.8258 56.0533 46.9538C56.0988 47.1098 56.1236 47.2775 56.1343 47.4485C56.156 47.7916 56.1258 48.2246 56.0258 48.762L54.0596 48.3961C54.1393 47.9676 54.1466 47.7065 54.1383 47.5743C54.1341 47.5076 54.1271 47.4923 54.1332 47.5135C54.1364 47.5245 54.1463 47.5558 54.1682 47.5994C54.1877 47.6382 54.2326 47.7186 54.318 47.8046L55.7375 46.3958ZM56.0247 48.7679L54.1527 58.5011L52.1887 58.1233L54.0607 48.3902L56.0247 48.7679ZM54.1573 58.4754C54.1552 58.4881 54.158 58.4858 54.1544 58.4713C54.1526 58.464 54.1494 58.4549 54.1444 58.4449C54.1393 58.4349 54.1332 58.426 54.1271 58.4188L52.6037 59.7146C52.2081 59.2496 52.0979 58.6702 52.1841 58.149L54.1573 58.4754ZM54.1271 58.4188C54.1354 58.4285 54.1327 58.422 54.1144 58.4131C54.1056 58.4088 54.0951 58.4049 54.0836 58.4023C54.0721 58.3996 54.062 58.3987 54.0543 58.3987V60.3987C53.4618 60.3987 52.9533 60.1256 52.6037 59.7146L54.1271 58.4188ZM54.0543 58.3987H58.8467V60.3987H54.0543V58.3987ZM58.8467 58.3987C58.8386 58.3987 58.8264 58.4002 58.8122 58.4054C58.7983 58.4105 58.7858 58.4179 58.7755 58.4265C58.7534 58.4449 58.75 58.4614 58.7507 58.4581L60.7098 58.8604C60.529 59.7407 59.7782 60.3987 58.8467 60.3987V58.3987ZM58.7484 58.4696L60.7253 48.2384L62.6889 48.6178L60.7121 58.849L58.7484 58.4696ZM60.7253 48.2382C61.1551 46.0171 60.733 44.6246 59.8459 43.8061L61.2021 42.3361C62.801 43.8114 63.1876 46.0404 62.6889 48.6181L60.7253 48.2382ZM59.8425 43.803C58.9462 42.9684 57.2821 42.4414 54.4437 42.4414V40.4414C57.4159 40.4414 59.7355 40.9706 61.2054 42.3392L59.8425 43.803ZM54.4437 42.4414H51.3287V40.4414H54.4437V42.4414ZM50.3462 41.2549L51.2597 36.4412L53.2247 36.8141L52.3111 41.6278L50.3462 41.2549ZM51.2556 36.4644C51.2577 36.4517 51.2549 36.454 51.2585 36.4685C51.2603 36.4758 51.2635 36.4849 51.2685 36.4949C51.2736 36.5049 51.2797 36.5138 51.2858 36.521L52.8092 35.2252C53.2048 35.6902 53.315 36.2696 53.2288 36.7908L51.2556 36.4644ZM51.2817 36.5162C51.297 36.5344 51.3115 36.5436 51.3216 36.5483C51.3321 36.5531 51.3443 36.5562 51.3586 36.5562V34.5562C51.9209 34.5562 52.4568 34.8055 52.8133 35.23L51.2817 36.5162ZM52.3407 36.65L51.2175 42.505L49.2533 42.1282L50.3765 36.2732L52.3407 36.65ZM50.2354 41.3166H54.4437V43.3166H50.2354V41.3166ZM54.4437 41.3166C57.1443 41.3166 59.2903 41.7794 60.586 42.968L59.2339 44.4418C58.5228 43.7894 57.0446 43.3166 54.4437 43.3166V41.3166ZM60.5919 42.9735C61.9642 44.2531 62.2226 46.1804 61.7902 48.4075L59.8269 48.0262C60.2031 46.0884 59.8625 45.0279 59.228 44.4363L60.5919 42.9735ZM61.7904 48.4066L59.8135 58.6377L57.8498 58.2583L59.8267 48.0272L61.7904 48.4066ZM58.8317 59.448H54.0393V57.448H58.8317V59.448ZM53.0577 58.2574L54.9447 48.5393L56.908 48.9205L55.021 58.6386L53.0577 58.2574ZM54.944 48.543C55.0387 48.0452 55.0564 47.6864 55.0309 47.4415C55.0185 47.3225 54.9973 47.2453 54.9794 47.199C54.9706 47.1764 54.963 47.1622 54.9581 47.1541C54.9533 47.1461 54.9505 47.1431 54.9504 47.143L56.423 45.7898C56.8021 46.2023 56.9669 46.7233 57.0201 47.2342C57.0733 47.7438 57.0236 48.3131 56.9087 48.9169L54.944 48.543ZM54.9504 47.143C54.9424 47.1344 54.8593 47.0541 54.5716 46.981C54.289 46.9091 53.8818 46.8628 53.3205 46.8628V44.8628C53.9722 44.8628 54.561 44.9146 55.0645 45.0427C55.5631 45.1694 56.0566 45.391 56.423 45.7898L54.9504 47.143ZM53.3205 46.8628H49.5465V44.8628H53.3205V46.8628ZM50.5285 46.0519L48.1023 58.6522L46.1384 58.274L48.5645 45.6737L50.5285 46.0519ZM47.1204 59.4631H42.4029V57.4631H47.1204V59.4631ZM41.4209 58.2739L45.6592 36.2725L47.6231 36.6508L43.3848 58.6522L41.4209 58.2739ZM46.6411 35.4616H51.3586V37.4616H46.6411V35.4616Z" fill="#FF4500" mask="url(#path-10-inside-2_104_164)"/>
<path d="M73.0382 53.9282L73.0382 53.9282L73.0348 53.9309C72.0509 54.6962 70.5679 55.0322 68.7142 55.0322H66.363H65.7572L65.872 54.4374L67.4745 46.1378L67.5527 45.7326H67.9654H70.8558C71.7116 45.7326 72.4504 45.8059 73.0546 45.9639C73.6518 46.12 74.1599 46.3698 74.505 46.7558C74.856 47.1331 75.0343 47.6452 75.0952 48.2209C75.1565 48.8002 75.1037 49.4832 74.9561 50.2505L74.9555 50.2534C74.629 51.8981 74.0067 53.1614 73.0382 53.9282ZM63.5659 42.3564L59.3516 64.2331H64.0084L65.0634 58.7979L65.142 58.3932H65.5543H69.2534C71.0502 58.3932 72.5353 58.1996 73.6655 57.8295L73.6672 57.829C74.8043 57.4612 75.8638 56.8227 76.8021 55.9346L76.802 55.9345L76.808 55.929C77.5949 55.2082 78.2481 54.391 78.7284 53.5085L78.73 53.5055C79.2123 52.6335 79.5692 51.6432 79.7694 50.5768L79.7698 50.5748C80.276 47.9372 79.8548 45.9238 78.64 44.523L78.6382 44.5209C77.4346 43.1173 75.4598 42.3564 72.6679 42.3564H63.5659Z" fill="#F2F2F2" stroke="#FF4500"/>
<mask id="path-13-inside-3_104_164" fill="white">
<path d="M68.3382 46.6853H70.8542C72.861 46.6853 73.5649 47.1229 73.8045 47.3945C74.1938 47.8321 74.2687 48.7677 74.0141 50.0805C73.7296 51.5443 73.2054 52.5855 72.4566 53.174C71.6779 53.7776 70.4199 54.0794 68.7276 54.0794H66.9155L68.3382 46.6853ZM72.6663 41.4037H63.5159C63.0816 41.4037 62.7222 41.7055 62.6323 42.1431L58.3941 64.1446C58.3491 64.4162 58.409 64.6878 58.5887 64.8991C58.7535 65.1104 59.0081 65.2311 59.2776 65.2311H64.04C64.4744 65.2311 64.8338 64.9293 64.9236 64.4917L65.9121 59.3761H69.2218C71.1088 59.3761 72.6962 59.1648 73.9393 58.7574C75.2122 58.3349 76.3953 57.6256 77.4437 56.6448C78.3123 55.845 79.0162 54.9547 79.5553 53.9738C80.0944 53.008 80.4838 51.9215 80.7085 50.7596C81.2626 47.8774 80.8133 45.5686 79.3606 43.8936C77.9229 42.2487 75.6615 41.4037 72.6663 41.4037ZM65.8222 54.9849H68.7126C70.6295 54.9849 72.0523 54.6227 72.9958 53.8984C73.9393 53.174 74.5683 51.9517 74.8977 50.2465C75.2122 48.6168 75.0625 47.4549 74.4634 46.7909C73.8644 46.1118 72.6663 45.7798 70.8542 45.7798H67.6044L65.8222 54.9849ZM72.6663 42.3091C75.4219 42.3091 77.4287 43.0334 78.6867 44.4972C79.9447 45.9609 80.3341 47.983 79.8249 50.5936C79.6152 51.665 79.2707 52.6459 78.7765 53.5362C78.2823 54.4265 77.6384 55.2414 76.8446 55.9808C75.9011 56.8711 74.8378 57.52 73.6847 57.8973C72.5015 58.2594 71.0189 58.4556 69.2218 58.4556H65.1483L64.0251 64.3106H59.2776L63.5159 42.3091H72.6663Z"/>
</mask>
<path d="M68.3382 46.6853H70.8542C72.861 46.6853 73.5649 47.1229 73.8045 47.3945C74.1938 47.8321 74.2687 48.7677 74.0141 50.0805C73.7296 51.5443 73.2054 52.5855 72.4566 53.174C71.6779 53.7776 70.4199 54.0794 68.7276 54.0794H66.9155L68.3382 46.6853ZM72.6663 41.4037H63.5159C63.0816 41.4037 62.7222 41.7055 62.6323 42.1431L58.3941 64.1446C58.3491 64.4162 58.409 64.6878 58.5887 64.8991C58.7535 65.1104 59.0081 65.2311 59.2776 65.2311H64.04C64.4744 65.2311 64.8338 64.9293 64.9236 64.4917L65.9121 59.3761H69.2218C71.1088 59.3761 72.6962 59.1648 73.9393 58.7574C75.2122 58.3349 76.3953 57.6256 77.4437 56.6448C78.3123 55.845 79.0162 54.9547 79.5553 53.9738C80.0944 53.008 80.4838 51.9215 80.7085 50.7596C81.2626 47.8774 80.8133 45.5686 79.3606 43.8936C77.9229 42.2487 75.6615 41.4037 72.6663 41.4037ZM65.8222 54.9849H68.7126C70.6295 54.9849 72.0523 54.6227 72.9958 53.8984C73.9393 53.174 74.5683 51.9517 74.8977 50.2465C75.2122 48.6168 75.0625 47.4549 74.4634 46.7909C73.8644 46.1118 72.6663 45.7798 70.8542 45.7798H67.6044L65.8222 54.9849ZM72.6663 42.3091C75.4219 42.3091 77.4287 43.0334 78.6867 44.4972C79.9447 45.9609 80.3341 47.983 79.8249 50.5936C79.6152 51.665 79.2707 52.6459 78.7765 53.5362C78.2823 54.4265 77.6384 55.2414 76.8446 55.9808C75.9011 56.8711 74.8378 57.52 73.6847 57.8973C72.5015 58.2594 71.0189 58.4556 69.2218 58.4556H65.1483L64.0251 64.3106H59.2776L63.5159 42.3091H72.6663Z" fill="#F2F2F2"/>
<path d="M68.3382 46.6853L67.3562 46.4963L67.5123 45.6853H68.3382V46.6853ZM73.8045 47.3945L73.0574 48.0592L73.0546 48.056L73.8045 47.3945ZM74.0141 50.0805L74.9958 50.2709L74.9958 50.2714L74.0141 50.0805ZM72.4566 53.174L73.0746 53.9603L73.0692 53.9644L72.4566 53.174ZM66.9155 54.0794V55.0794H65.7047L65.9335 53.8905L66.9155 54.0794ZM62.6323 42.1431L61.6503 41.9539L61.6527 41.942L62.6323 42.1431ZM58.3941 64.1446L57.4075 63.9814L57.4096 63.9684L57.4121 63.9554L58.3941 64.1446ZM58.5887 64.8991L59.3504 64.2512L59.3642 64.2674L59.3773 64.2842L58.5887 64.8991ZM64.9236 64.4917L65.9055 64.6814L65.9032 64.6928L64.9236 64.4917ZM65.9121 59.3761L64.9302 59.1864L65.0868 58.3761H65.9121V59.3761ZM73.9393 58.7574L74.2543 59.7065L74.2507 59.7076L73.9393 58.7574ZM77.4437 56.6448L76.7604 55.9145L76.7663 55.9091L77.4437 56.6448ZM79.5553 53.9738L78.6789 53.4921L78.6821 53.4864L79.5553 53.9738ZM80.7085 50.7596L81.6905 50.9484L81.6903 50.9494L80.7085 50.7596ZM79.3606 43.8936L80.1135 43.2355L80.1161 43.2384L79.3606 43.8936ZM65.8222 54.9849V55.9849H64.61L64.8404 54.7948L65.8222 54.9849ZM74.8977 50.2465L75.8796 50.436L75.8796 50.4362L74.8977 50.2465ZM74.4634 46.7909L73.7209 47.4608L73.7135 47.4524L74.4634 46.7909ZM67.6044 45.7798L66.6226 45.5898L66.7794 44.7798H67.6044V45.7798ZM79.8249 50.5936L80.8064 50.785L80.8062 50.7857L79.8249 50.5936ZM76.8446 55.9808L76.1583 55.2535L76.163 55.2491L76.8446 55.9808ZM73.6847 57.8973L73.9956 58.8477L73.9865 58.8507L73.9774 58.8535L73.6847 57.8973ZM65.1483 58.4556L64.1662 58.2672L64.3219 57.4556H65.1483V58.4556ZM64.0251 64.3106L65.0072 64.499L64.8515 65.3106H64.0251V64.3106ZM59.2776 64.3106V65.3106H58.0666L58.2957 64.1214L59.2776 64.3106ZM63.5159 42.3091L62.5339 42.1199L62.6901 41.3091H63.5159V42.3091ZM68.3382 45.6853H70.8542V47.6853H68.3382V45.6853ZM70.8542 45.6853C72.9498 45.6853 74.0246 46.1324 74.5544 46.7329L73.0546 48.056C73.1051 48.1133 72.7722 47.6853 70.8542 47.6853V45.6853ZM74.5516 46.7298C74.9532 47.1812 75.1042 47.7769 75.1477 48.331C75.1927 48.9035 75.1334 49.5614 74.9958 50.2709L73.0324 49.8902C73.1494 49.2868 73.18 48.8205 73.1539 48.4876C73.1263 48.1363 73.0451 48.0454 73.0574 48.0592L74.5516 46.7298ZM74.9958 50.2714C74.6901 51.8439 74.0936 53.1594 73.0746 53.9603L71.8387 52.3878C72.3173 52.0117 72.7691 51.2446 73.0325 49.8897L74.9958 50.2714ZM73.0692 53.9644C72.0265 54.7727 70.4945 55.0794 68.7276 55.0794V53.0794C70.3453 53.0794 71.3293 52.7826 71.844 52.3836L73.0692 53.9644ZM68.7276 55.0794H66.9155V53.0794H68.7276V55.0794ZM65.9335 53.8905L67.3562 46.4963L69.3202 46.8742L67.8974 54.2684L65.9335 53.8905ZM72.6663 42.4037H63.5159V40.4037H72.6663V42.4037ZM63.5159 42.4037C63.5239 42.4037 63.5362 42.4022 63.5504 42.397C63.5642 42.3919 63.5768 42.3845 63.5871 42.3759C63.6091 42.3574 63.6125 42.341 63.6119 42.3442L61.6527 41.942C61.8335 41.0616 62.5844 40.4037 63.5159 40.4037V42.4037ZM63.6142 42.3323L59.376 64.3337L57.4121 63.9554L61.6503 41.954L63.6142 42.3323ZM59.3807 64.3078C59.3786 64.3205 59.3813 64.3182 59.3777 64.3037C59.3759 64.2964 59.3728 64.2873 59.3677 64.2773C59.3626 64.2673 59.3566 64.2584 59.3504 64.2512L57.8271 65.547C57.4315 65.082 57.3213 64.5026 57.4075 63.9814L59.3807 64.3078ZM59.3773 64.2842C59.3463 64.2444 59.3059 64.2311 59.2776 64.2311V66.2311C58.7102 66.2311 58.1606 65.9763 57.8002 65.514L59.3773 64.2842ZM59.2776 64.2311H64.04V66.2311H59.2776V64.2311ZM64.04 64.2311C64.032 64.2311 64.0197 64.2326 64.0056 64.2378C63.9917 64.2429 63.9792 64.2503 63.9689 64.2589C63.9468 64.2773 63.9434 64.2938 63.9441 64.2905L65.9032 64.6928C65.7224 65.5731 64.9715 66.2311 64.04 66.2311V64.2311ZM63.9418 64.302L64.9302 59.1864L66.8939 59.5658L65.9055 64.6814L63.9418 64.302ZM65.9121 58.3761H69.2218V60.3761H65.9121V58.3761ZM69.2218 58.3761C71.0433 58.3761 72.5175 58.1711 73.6278 57.8071L74.2507 59.7076C72.8749 60.1586 71.1743 60.3761 69.2218 60.3761V58.3761ZM73.6242 57.8083C74.753 57.4337 75.812 56.802 76.7604 55.9146L78.1269 57.375C76.9787 58.4493 75.6715 59.2361 74.2543 59.7065L73.6242 57.8083ZM76.7663 55.9091C77.5597 55.1786 78.1948 54.373 78.679 53.4921L80.4316 54.4555C79.8375 55.5363 79.0649 56.5114 78.121 57.3804L76.7663 55.9091ZM78.6821 53.4864C79.1658 52.62 79.5207 51.635 79.7266 50.5698L81.6903 50.9494C81.4469 52.208 81.0231 53.3961 80.4285 54.4612L78.6821 53.4864ZM79.7264 50.5708C80.2433 47.8826 79.7948 45.9205 78.6051 44.5488L80.1161 43.2384C81.8318 45.2166 82.2819 47.8722 81.6905 50.9484L79.7264 50.5708ZM78.6077 44.5517C77.4219 43.1951 75.4829 42.4037 72.6663 42.4037V40.4037C75.8401 40.4037 78.4239 41.3024 80.1135 43.2355L78.6077 44.5517ZM65.8222 53.9849H68.7126V55.9849H65.8222V53.9849ZM68.7126 53.9849C70.5329 53.9849 71.6957 53.6358 72.3868 53.1052L73.6047 54.6916C72.4089 55.6096 70.7262 55.9849 68.7126 55.9849V53.9849ZM72.3868 53.1052C73.0605 52.588 73.6107 51.6365 73.9159 50.0568L75.8796 50.4362C75.5258 52.2669 74.818 53.7601 73.6047 54.6916L72.3868 53.1052ZM73.9158 50.0571C74.2179 48.4917 73.986 47.7545 73.7209 47.4608L75.2059 46.121C76.139 47.1552 76.2065 48.7419 75.8796 50.436L73.9158 50.0571ZM73.7135 47.4524C73.4258 47.1263 72.6373 46.7798 70.8542 46.7798V44.7798C72.6953 44.7798 74.3029 45.0974 75.2133 46.1293L73.7135 47.4524ZM70.8542 46.7798H67.6044V44.7798H70.8542V46.7798ZM68.5861 45.9699L66.804 55.1749L64.8404 54.7948L66.6226 45.5898L68.5861 45.9699ZM72.6663 41.3091C75.5818 41.3091 77.9255 42.0773 79.4451 43.8454L77.9283 45.149C76.9319 43.9896 75.262 43.3091 72.6663 43.3091V41.3091ZM79.4451 43.8454C80.9674 45.6167 81.352 47.9876 80.8064 50.785L78.8434 50.4022C79.3161 47.9785 78.9219 46.3051 77.9283 45.149L79.4451 43.8454ZM80.8062 50.7857C80.5788 51.9477 80.2016 53.0295 79.6509 54.0215L77.9022 53.0509C78.3399 52.2623 78.6516 51.3823 78.8435 50.4016L80.8062 50.7857ZM79.6509 54.0215C79.1025 55.0094 78.3917 55.9063 77.5262 56.7125L76.163 55.2491C76.885 54.5765 77.4621 53.8436 77.9022 53.0509L79.6509 54.0215ZM77.5309 56.7081C76.49 57.6904 75.301 58.4206 73.9956 58.8477L73.3737 56.9468C74.3747 56.6194 75.3123 56.0519 76.1583 55.2535L77.5309 56.7081ZM73.9774 58.8535C72.6728 59.2528 71.0858 59.4556 69.2218 59.4556V57.4556C70.952 57.4556 72.3303 57.266 73.392 56.9411L73.9774 58.8535ZM69.2218 59.4556H65.1483V57.4556H69.2218V59.4556ZM66.1304 58.644L65.0072 64.499L63.043 64.1222L64.1662 58.2672L66.1304 58.644ZM64.0251 65.3106H59.2776V63.3106H64.0251V65.3106ZM58.2957 64.1214L62.5339 42.1199L64.4978 42.4983L60.2596 64.4997L58.2957 64.1214ZM63.5159 41.3091H72.6663V43.3091H63.5159V41.3091Z" fill="#FF4500" mask="url(#path-13-inside-3_104_164)"/>
</g>
</g>
<rect x="1" y="1" width="98" height="98" stroke="#FF4500" stroke-width="2"/>
<defs>
<clipPath id="clip0_104_164">
<rect width="85.2081" height="46.3087" fill="white" transform="translate(7.38257 28.859)"/>
</clipPath>
</defs>
</svg>
