<svg width="100" height="100" viewBox="0 0 100 100" fill="none" xmlns="http://www.w3.org/2000/svg">
<path d="M43.9298 23.7763C46.4106 22.3033 49.315 21.5862 52.6014 21.6388C54.3541 21.6693 56.0264 21.8216 57.5796 22.0957L43.9298 23.7763ZM43.9298 23.7763C42.5565 23.3111 40.3526 22.6577 37.8053 22.2396L43.9298 23.7763ZM76.0685 60.0482C75.9579 60.0544 75.8526 60.0589 75.7523 60.0619L75.7674 60.5617L76.1976 60.8166C76.2541 60.7212 76.3104 60.6255 76.3666 60.5297C77.114 60.4737 78.0564 60.3477 79.2339 60.1048C80.106 59.9249 80.8425 59.8833 81.4849 59.9802C82.8471 60.1824 83.902 61.0324 84.3034 62.2506C85.4774 65.8029 80.4909 68.436 78.9349 69.1558C76.9663 70.0695 73.7601 70.626 71.1381 70.507L76.0685 60.0482ZM76.0685 60.0482C79.0341 54.9349 81.4408 49.1653 82.8471 43.7222L76.0685 60.0482ZM83.8286 62.4071L83.8287 62.4075C84.3205 63.8958 83.554 65.2464 82.3041 66.3976C81.0672 67.537 79.4876 68.3492 78.7249 68.702L78.7244 68.7023C76.8437 69.5752 73.7236 70.1228 71.1665 70.0077L71.0552 70.0002L70.5896 69.9591L70.1051 69.9163L70.049 70.3994L70.0074 70.7565L70.0071 70.7591C69.9947 70.8708 69.9813 70.9844 69.9673 71.1034C69.9596 71.1688 69.9517 71.2358 69.9437 71.3049L69.9412 71.3271L69.9406 71.3494C69.7639 78.0845 68.7933 82.2462 66.8832 84.9659L67.2923 85.2532L66.8832 84.9659C64.8828 87.8146 62.1245 88.6236 59.5737 89.1694L59.5734 89.1694C58.8769 89.3189 58.0905 89.4269 57.2695 89.4269C55.6364 89.4269 53.8944 89.0023 52.4603 87.6475L52.4599 87.6471C51.0617 86.3288 50.5027 84.6356 50.1503 83.5535L50.15 83.5525L50.146 83.5401C50.0932 83.3792 50.0389 83.2137 49.9973 83.1007L49.9971 83.1001C49.3228 81.2782 49.0841 78.6299 48.9424 75.1134L48.9424 75.1121C48.9251 74.708 48.9129 74.2806 48.9003 73.8398C48.897 73.7207 48.8935 73.6006 48.89 73.4797L48.89 73.4786C48.8853 73.3324 48.8806 73.1744 48.8756 73.0085C48.869 72.7845 48.8619 72.5463 48.8539 72.3042L48.8298 71.5662L48.1535 71.8625C45.8935 72.8529 43.2233 73.0392 40.3407 72.3199L40.3402 72.3198C39.5642 72.1271 38.7889 71.7985 38.1608 71.4021L38.1605 71.4019C37.6722 71.0941 37.3135 70.7659 37.0462 70.4447L36.7262 70.0601L36.3418 70.3803C34.1414 72.2131 32.0827 71.9358 30.9555 71.5609C28.9236 70.8825 27.032 68.9675 25.2124 65.5171L25.2124 65.517C23.9334 63.0928 22.6873 59.9213 21.5162 56.08L21.5161 56.0799C19.4727 49.3865 18.1842 42.3513 18.0708 40.0841L18.0708 40.0839C17.7074 32.8537 19.6661 27.8089 23.7491 24.9239L23.7491 24.9239C27.1348 22.5313 31.812 21.7627 37.7244 22.733C40.237 23.1454 42.4134 23.7906 43.7694 24.2499L43.9872 24.3237L44.185 24.2062C46.5757 22.7868 49.3864 22.0875 52.5931 22.1388C54.3226 22.1688 55.9684 22.3191 57.4927 22.5881L57.612 22.6091L57.7277 22.5732C59.3594 22.0672 62.5072 21.3588 66.0874 21.4023C72.7839 21.4837 78.3 24.0877 82.0795 28.9186L82.0796 28.9187C83.4025 30.6085 84.6972 34.5546 82.363 43.5973C80.9219 49.1748 78.4186 55.1063 75.3373 60.3068L74.8738 61.089L75.7826 61.0615C76.6388 61.0355 77.7947 60.9121 79.3349 60.5945L79.3349 60.5945C80.1698 60.4222 80.844 60.3892 81.4103 60.4747L81.4115 60.4748C82.6039 60.6517 83.4915 61.3843 83.8286 62.4071Z" fill="#F2F2F2" stroke="#FF4500"/>
<path d="M70.9552 61.8017L71.0723 61.6279C75.1544 55.5701 78.0502 48.6927 79.5551 42.867C80.3077 39.9536 80.7084 37.3191 80.7415 35.1923C80.775 33.0363 80.4284 31.5072 79.7981 30.7017C75.8723 25.6852 70.5112 24.352 66.055 24.2988C63.8268 24.2722 61.8365 24.5666 60.3887 24.876C59.6655 25.0306 59.0797 25.1885 58.6698 25.3108C58.4649 25.3719 58.3048 25.4239 58.1943 25.4619C58.1389 25.4809 58.0974 25.4959 58.0697 25.5063C58.0622 25.5091 58.0565 25.5113 58.0523 25.513L58.0014 25.5408L57.9226 25.5554L57.8479 25.5693L57.7511 25.5872L57.6547 25.5671C56.1501 25.2532 54.4568 25.0677 52.5458 25.0349C49.1232 24.9785 46.5569 25.9301 44.6223 27.3975L44.3943 27.5705L44.1298 27.4615L44.1297 27.4614L44.1293 27.4613L44.1266 27.4602L44.1144 27.4552L44.0638 27.4349C44.0185 27.417 43.9505 27.3903 43.8612 27.3562C43.6827 27.2881 43.4193 27.1905 43.0836 27.0741C42.412 26.8412 41.4523 26.5336 40.3039 26.2362C38.0013 25.6398 34.9662 25.0913 31.9835 25.2533C29.0001 25.4154 26.1263 26.2841 24.0648 28.4629C22.0076 30.6372 20.6776 34.2032 20.9641 39.9374L20.9641 39.9375C21.0235 41.1292 21.4892 44.0532 22.293 47.6405C23.0945 51.2172 24.2234 55.4149 25.5956 59.1467C26.9763 62.9018 28.5747 66.1027 30.2811 67.761C31.1274 68.5835 31.9393 68.9676 32.7168 68.9346C33.4912 68.9017 34.372 68.4489 35.3443 67.2802L70.9552 61.8017ZM70.9552 61.8017L70.997 62.007M70.9552 61.8017L70.997 62.007M70.997 62.007L71.487 61.9073M70.997 62.007L71.487 61.9073M71.487 61.9073C70.997 62.007 70.9971 62.0077 70.9973 62.0084L70.9976 62.0099L70.9983 62.0131L70.9999 62.0203L71.0041 62.0377C71.0073 62.0506 71.0116 62.066 71.0171 62.0838C71.028 62.1193 71.0438 62.1641 71.0664 62.2164C71.1118 62.3211 71.184 62.4544 71.2973 62.6009C71.5263 62.8969 71.9095 63.2282 72.5388 63.4889C73.783 64.0042 75.9836 64.2423 79.9217 63.4298C80.327 63.3464 80.6261 63.3187 80.8361 63.326C80.9432 63.3298 81.0135 63.3421 81.057 63.3536C81.0393 63.4048 81.003 63.4831 80.9321 63.5898C80.7173 63.913 80.2932 64.3365 79.6877 64.7865C79.0895 65.2311 78.3408 65.682 77.504 66.069L77.5031 66.0694C75.9883 66.7733 73.3384 67.1987 71.3013 67.1091L70.6509 67.0519C69.9401 66.8998 69.3407 66.8458 68.8546 66.9806C68.3051 67.1329 67.9711 67.5027 67.7695 67.9989C67.5829 68.458 67.4952 69.0584 67.4208 69.7476C67.3919 70.0162 67.3649 70.2989 67.3361 70.6015C67.2889 71.0975 67.2366 71.6467 67.1619 72.2743L71.487 61.9073ZM50.999 67.2088L51.0567 66.9804L50.1652 66.5671C47.2631 70.6269 42.9836 69.9932 41.0416 69.507L41.0412 69.5069C40.672 69.4148 40.2503 69.2558 39.8932 69.0604C39.5167 68.8544 39.2925 68.6515 39.2152 68.5082C39.1993 68.4786 39.1942 68.4596 39.1926 68.4505C39.1913 68.4428 39.1919 68.4396 39.1924 68.4371C39.1931 68.4344 39.2053 68.3818 39.3167 68.291C39.557 68.095 40.0974 67.8517 41.1457 67.6355C43.2418 67.2036 44.2515 66.8671 44.9906 66.2785C45.3566 65.987 45.6386 65.6476 45.9432 65.2637C45.9917 65.2026 46.0411 65.1399 46.0919 65.0755C46.3642 64.7299 46.677 64.333 47.1098 63.8494L47.2676 63.6731L47.2314 63.4393C47.1561 62.9539 47.1402 62.5625 47.1794 62.1672L47.303 60.9241L46.3559 61.7387L46.3398 61.7525C44.7216 61.8734 43.1763 61.4235 41.8755 60.558L41.5257 60.3252L41.2361 60.6297L41.5985 60.9743L41.2361 60.6298L41.236 60.6299L41.2355 60.6304L41.2338 60.6322L41.2274 60.639L41.2022 60.6656L41.1046 60.7689C41.0193 60.8596 40.8944 60.9928 40.7351 61.1638C40.4167 61.5058 39.9613 61.999 39.4124 62.6046C38.315 63.8155 36.8427 65.4775 35.3444 67.2801L50.999 67.2088ZM50.999 67.2088C51.2027 67.4736 51.3594 67.8255 51.4855 68.188C51.6667 68.7087 51.8191 69.3574 51.9396 70.075C52.181 71.5118 52.3034 73.2764 52.254 74.9544C52.1559 78.2883 52.104 80.4354 52.7107 82.0902C52.7108 82.0905 52.7108 82.0907 52.7109 82.0909L50.999 67.2088ZM63.9856 83.7943C62.8576 84.9986 61.208 85.8502 58.9644 86.3315L65.9189 78.9459C65.9189 78.946 65.9189 78.9462 65.9189 78.9463C65.7582 80.9986 65.1097 82.5942 63.9856 83.7943Z" fill="#F2F2F2" stroke="#FF4500"/>
<path d="M45.7821 42.1773C45.0788 42.0804 44.442 42.169 44.1208 42.4127C43.9409 42.5511 43.8827 42.7089 43.8689 42.8169C43.8273 43.1076 44.0322 43.426 44.1568 43.5921C44.5084 44.0601 45.0262 44.3812 45.5356 44.4532C45.6104 44.4643 45.6824 44.4671 45.7571 44.4671C46.6071 44.4671 47.3824 43.8053 47.4488 43.3153C47.5347 42.7062 46.6459 42.2992 45.7821 42.1773ZM69.0588 42.1967C68.9924 41.7177 68.1368 41.5793 67.3256 41.6928C66.5171 41.8063 65.7308 42.1718 65.7972 42.6508C65.8498 43.0246 66.5254 43.6641 67.3256 43.6641C67.392 43.6641 67.4612 43.6586 67.5305 43.6503C68.0648 43.5755 68.4552 43.2377 68.6407 43.0412C68.9259 42.7449 69.0893 42.4127 69.0588 42.1967Z" fill="#FF4500"/>
<mask id="path-4-inside-1_104_2" fill="white">
<path d="M82.4152 62.7573C82.1189 61.8575 81.1609 61.5695 79.5717 61.8962C74.851 62.8708 73.1621 62.1953 72.6056 61.7882C76.2741 56.1982 79.292 49.4425 80.9201 43.1381C81.6925 40.1534 82.1162 37.3791 82.1521 35.1198C82.1909 32.639 81.7673 30.8172 80.8979 29.7014C77.3844 25.2133 72.2262 22.8045 65.9855 22.738C61.694 22.691 58.0697 23.7874 57.3665 24.0975C55.8852 23.7292 54.2738 23.5022 52.5156 23.4745C49.2928 23.4219 46.5103 24.1944 44.2039 25.767C43.2016 25.3933 40.6156 24.5045 37.4482 23.995C31.9772 23.1146 27.6275 23.7819 24.5237 25.9802C20.8219 28.6022 19.1136 33.2925 19.4431 39.9153C19.5539 42.1441 20.8247 48.9995 22.8293 55.5669C25.4679 64.2081 28.3335 69.1005 31.3514 70.1083C31.7058 70.2273 32.1128 70.3076 32.5614 70.3076C33.6606 70.3076 35.0117 69.812 36.4154 68.1231C38.1265 66.0687 39.8985 64.0642 41.7259 62.1122C42.9109 62.749 44.215 63.1034 45.5467 63.1394C45.5495 63.1754 45.5523 63.2086 45.555 63.2446C45.3252 63.5187 45.101 63.7956 44.8822 64.078C43.9602 65.2492 43.7664 65.4956 40.7956 66.1075C39.9511 66.2819 37.7057 66.7443 37.6725 68.3197C37.6365 70.0391 40.3277 70.7617 40.6322 70.8392C41.701 71.1078 42.7282 71.2379 43.7111 71.2379C46.0977 71.2379 48.1964 70.4544 49.877 68.9371C49.8244 75.0671 50.0819 81.1085 50.8184 82.9497C51.422 84.4559 52.8949 88.1383 57.5464 88.1383C58.2303 88.1383 58.9806 88.058 59.8057 87.8808C64.6621 86.8398 66.7691 84.694 67.5858 79.9622C68.0233 77.4344 68.7709 71.3958 69.1225 68.1563C69.8673 68.3889 70.8225 68.4941 71.858 68.4941C74.0148 68.4941 76.5067 68.0345 78.0683 67.3119C79.8236 66.4951 82.9883 64.4961 82.4152 62.7573ZM70.8502 40.8732C70.8336 41.8285 70.7034 42.6978 70.5622 43.6032C70.4127 44.5778 70.2577 45.5856 70.2189 46.8094C70.1801 48 70.3297 49.2376 70.4736 50.4337C70.7644 52.8508 71.0634 55.3399 69.9088 57.7957C69.7178 57.4552 69.5461 57.1063 69.3966 56.7436C69.2526 56.3948 68.9425 55.8382 68.5106 55.0658C66.8327 52.0562 62.9039 45.0125 64.9168 42.1358C65.5148 41.2802 67.0349 40.3998 70.8502 40.8732ZM66.2264 24.6734C71.8192 24.798 76.2437 26.8884 79.3751 30.892C81.7784 33.9625 79.1315 47.9307 71.4731 59.983C71.3956 59.8861 71.3181 59.7865 71.2406 59.6896L71.1437 59.5677C73.1233 56.3006 72.7357 53.0667 72.3924 50.1983C72.2512 49.0216 72.1183 47.9114 72.1515 46.8675C72.1875 45.7601 72.3342 44.8132 72.4754 43.8939C72.6499 42.7643 72.8271 41.5931 72.7772 40.2143C72.8132 40.0703 72.8271 39.8987 72.8104 39.6965C72.6858 38.3731 71.1769 34.4166 68.0981 30.8338C66.4147 28.8736 63.9588 26.6807 60.6059 25.2022C62.0456 24.9032 64.0169 24.6263 66.2264 24.6734ZM34.9286 66.8883C33.3809 68.7488 32.315 68.3917 31.9633 68.2754C29.6736 67.5112 27.0184 62.6742 24.6788 55.0049C22.6521 48.3682 21.4698 41.6928 21.3757 39.8211C21.0767 33.8988 22.5136 29.7762 25.6395 27.5584C30.7257 23.9507 39.09 26.1104 42.4513 27.204C42.4042 27.2511 42.3516 27.2954 42.3045 27.3452C36.7892 32.9159 36.9194 42.4293 36.9332 43.0135C36.9332 43.2377 36.9526 43.5561 36.9775 43.9936C37.0716 45.5939 37.2488 48.5731 36.7782 51.9454C36.3407 55.0796 37.307 58.1474 39.4278 60.3624C39.6466 60.5894 39.8736 60.8054 40.1145 61.0102C39.1676 62.0208 37.1159 64.258 34.9286 66.8883ZM40.8233 59.0251C39.1122 57.2392 38.3342 54.7557 38.6913 52.2112C39.1897 48.6478 39.007 45.5441 38.9073 43.8773C38.8935 43.6447 38.8824 43.4399 38.8741 43.2793C39.6798 42.5649 43.412 40.5659 46.0756 41.175C47.291 41.4519 48.0303 42.2798 48.3376 43.7029C49.9296 51.0705 48.548 54.141 47.4378 56.608C47.208 57.1174 46.992 57.5964 46.8093 58.0948L46.6653 58.4796C46.3026 59.4514 45.9648 60.354 45.7572 61.2124C43.9381 61.2068 42.1689 60.4288 40.8233 59.0251ZM41.1029 68.962C40.5713 68.8291 40.0951 68.5993 39.8127 68.4083C40.048 68.2975 40.4633 68.148 41.186 67.9985C44.6829 67.2786 45.2228 66.772 46.4023 65.2741C46.6736 64.9308 46.9782 64.5404 47.4046 64.0669C48.0358 63.3581 48.3265 63.4799 48.8498 63.6959C49.2734 63.8703 49.6888 64.4047 49.8576 64.9917C49.9379 65.2686 50.0265 65.7946 49.7331 66.2016C47.2689 69.6515 43.6806 69.6072 41.1029 68.962ZM59.4015 85.9898C55.1238 86.9062 53.6093 84.7244 52.6125 82.2298C51.9674 80.6184 51.6518 73.356 51.8761 65.335C51.8788 65.227 51.865 65.1246 51.8345 65.0277C51.8096 64.8366 51.7681 64.6456 51.7155 64.4601C51.3804 63.2917 50.5664 62.3171 49.5919 61.9128C49.2042 61.7523 48.4927 61.456 47.6371 61.6747C47.8199 60.9216 48.1355 60.0744 48.4788 59.1552L48.6228 58.7676C48.7861 58.3329 48.9883 57.8788 49.2042 57.4026C50.3671 54.8221 51.9591 51.2837 50.2314 43.2959C49.5835 40.3029 47.4239 38.841 44.1485 39.1815C42.1855 39.3837 40.3886 40.1783 39.4915 40.6324C39.2977 40.7293 39.1233 40.8234 38.9571 40.9148C39.2063 37.8996 40.1532 32.2653 43.6861 28.7019C45.9122 26.4565 48.8747 25.349 52.4852 25.4099C59.6008 25.5262 64.1637 29.1781 66.7386 32.221C68.9564 34.8429 70.158 37.4843 70.6398 38.9074C67.0349 38.542 64.5818 39.2535 63.3386 41.0311C60.6336 44.8962 64.8171 52.4022 66.83 56.0071C67.1982 56.6689 67.5166 57.2392 67.6163 57.4829C68.2725 59.0694 69.1197 60.1298 69.7372 60.9023C69.9282 61.1404 70.1109 61.3702 70.2521 61.5695C69.1613 61.8852 67.1982 62.6106 67.3782 66.2487C67.2342 68.0733 66.2098 76.6176 65.6865 79.6355C64.9943 83.6197 63.5269 85.1038 59.4015 85.9898ZM77.2543 65.5565C76.1385 66.0743 74.2696 66.4646 72.492 66.5477C70.5318 66.6391 69.5323 66.329 69.2969 66.1352C69.1862 63.8703 70.0306 63.6322 70.9222 63.3803C71.0634 63.3415 71.199 63.3027 71.3319 63.2557C71.415 63.3221 71.5036 63.3886 71.6033 63.455C73.1787 64.4961 75.9917 64.6068 79.9593 63.7873L80.0036 63.779C79.4692 64.2829 78.5528 64.9529 77.2543 65.5565Z"/>
</mask>
<path d="M82.4152 62.7573C82.1189 61.8575 81.1609 61.5695 79.5717 61.8962C74.851 62.8708 73.1621 62.1953 72.6056 61.7882C76.2741 56.1982 79.292 49.4425 80.9201 43.1381C81.6925 40.1534 82.1162 37.3791 82.1521 35.1198C82.1909 32.639 81.7673 30.8172 80.8979 29.7014C77.3844 25.2133 72.2262 22.8045 65.9855 22.738C61.694 22.691 58.0697 23.7874 57.3665 24.0975C55.8852 23.7292 54.2738 23.5022 52.5156 23.4745C49.2928 23.4219 46.5103 24.1944 44.2039 25.767C43.2016 25.3933 40.6156 24.5045 37.4482 23.995C31.9772 23.1146 27.6275 23.7819 24.5237 25.9802C20.8219 28.6022 19.1136 33.2925 19.4431 39.9153C19.5539 42.1441 20.8247 48.9995 22.8293 55.5669C25.4679 64.2081 28.3335 69.1005 31.3514 70.1083C31.7058 70.2273 32.1128 70.3076 32.5614 70.3076C33.6606 70.3076 35.0117 69.812 36.4154 68.1231C38.1265 66.0687 39.8985 64.0642 41.7259 62.1122C42.9109 62.749 44.215 63.1034 45.5467 63.1394C45.5495 63.1754 45.5523 63.2086 45.555 63.2446C45.3252 63.5187 45.101 63.7956 44.8822 64.078C43.9602 65.2492 43.7664 65.4956 40.7956 66.1075C39.9511 66.2819 37.7057 66.7443 37.6725 68.3197C37.6365 70.0391 40.3277 70.7617 40.6322 70.8392C41.701 71.1078 42.7282 71.2379 43.7111 71.2379C46.0977 71.2379 48.1964 70.4544 49.877 68.9371C49.8244 75.0671 50.0819 81.1085 50.8184 82.9497C51.422 84.4559 52.8949 88.1383 57.5464 88.1383C58.2303 88.1383 58.9806 88.058 59.8057 87.8808C64.6621 86.8398 66.7691 84.694 67.5858 79.9622C68.0233 77.4344 68.7709 71.3958 69.1225 68.1563C69.8673 68.3889 70.8225 68.4941 71.858 68.4941C74.0148 68.4941 76.5067 68.0345 78.0683 67.3119C79.8236 66.4951 82.9883 64.4961 82.4152 62.7573ZM70.8502 40.8732C70.8336 41.8285 70.7034 42.6978 70.5622 43.6032C70.4127 44.5778 70.2577 45.5856 70.2189 46.8094C70.1801 48 70.3297 49.2376 70.4736 50.4337C70.7644 52.8508 71.0634 55.3399 69.9088 57.7957C69.7178 57.4552 69.5461 57.1063 69.3966 56.7436C69.2526 56.3948 68.9425 55.8382 68.5106 55.0658C66.8327 52.0562 62.9039 45.0125 64.9168 42.1358C65.5148 41.2802 67.0349 40.3998 70.8502 40.8732ZM66.2264 24.6734C71.8192 24.798 76.2437 26.8884 79.3751 30.892C81.7784 33.9625 79.1315 47.9307 71.4731 59.983C71.3956 59.8861 71.3181 59.7865 71.2406 59.6896L71.1437 59.5677C73.1233 56.3006 72.7357 53.0667 72.3924 50.1983C72.2512 49.0216 72.1183 47.9114 72.1515 46.8675C72.1875 45.7601 72.3342 44.8132 72.4754 43.8939C72.6499 42.7643 72.8271 41.5931 72.7772 40.2143C72.8132 40.0703 72.8271 39.8987 72.8104 39.6965C72.6858 38.3731 71.1769 34.4166 68.0981 30.8338C66.4147 28.8736 63.9588 26.6807 60.6059 25.2022C62.0456 24.9032 64.0169 24.6263 66.2264 24.6734ZM34.9286 66.8883C33.3809 68.7488 32.315 68.3917 31.9633 68.2754C29.6736 67.5112 27.0184 62.6742 24.6788 55.0049C22.6521 48.3682 21.4698 41.6928 21.3757 39.8211C21.0767 33.8988 22.5136 29.7762 25.6395 27.5584C30.7257 23.9507 39.09 26.1104 42.4513 27.204C42.4042 27.2511 42.3516 27.2954 42.3045 27.3452C36.7892 32.9159 36.9194 42.4293 36.9332 43.0135C36.9332 43.2377 36.9526 43.5561 36.9775 43.9936C37.0716 45.5939 37.2488 48.5731 36.7782 51.9454C36.3407 55.0796 37.307 58.1474 39.4278 60.3624C39.6466 60.5894 39.8736 60.8054 40.1145 61.0102C39.1676 62.0208 37.1159 64.258 34.9286 66.8883ZM40.8233 59.0251C39.1122 57.2392 38.3342 54.7557 38.6913 52.2112C39.1897 48.6478 39.007 45.5441 38.9073 43.8773C38.8935 43.6447 38.8824 43.4399 38.8741 43.2793C39.6798 42.5649 43.412 40.5659 46.0756 41.175C47.291 41.4519 48.0303 42.2798 48.3376 43.7029C49.9296 51.0705 48.548 54.141 47.4378 56.608C47.208 57.1174 46.992 57.5964 46.8093 58.0948L46.6653 58.4796C46.3026 59.4514 45.9648 60.354 45.7572 61.2124C43.9381 61.2068 42.1689 60.4288 40.8233 59.0251ZM41.1029 68.962C40.5713 68.8291 40.0951 68.5993 39.8127 68.4083C40.048 68.2975 40.4633 68.148 41.186 67.9985C44.6829 67.2786 45.2228 66.772 46.4023 65.2741C46.6736 64.9308 46.9782 64.5404 47.4046 64.0669C48.0358 63.3581 48.3265 63.4799 48.8498 63.6959C49.2734 63.8703 49.6888 64.4047 49.8576 64.9917C49.9379 65.2686 50.0265 65.7946 49.7331 66.2016C47.2689 69.6515 43.6806 69.6072 41.1029 68.962ZM59.4015 85.9898C55.1238 86.9062 53.6093 84.7244 52.6125 82.2298C51.9674 80.6184 51.6518 73.356 51.8761 65.335C51.8788 65.227 51.865 65.1246 51.8345 65.0277C51.8096 64.8366 51.7681 64.6456 51.7155 64.4601C51.3804 63.2917 50.5664 62.3171 49.5919 61.9128C49.2042 61.7523 48.4927 61.456 47.6371 61.6747C47.8199 60.9216 48.1355 60.0744 48.4788 59.1552L48.6228 58.7676C48.7861 58.3329 48.9883 57.8788 49.2042 57.4026C50.3671 54.8221 51.9591 51.2837 50.2314 43.2959C49.5835 40.3029 47.4239 38.841 44.1485 39.1815C42.1855 39.3837 40.3886 40.1783 39.4915 40.6324C39.2977 40.7293 39.1233 40.8234 38.9571 40.9148C39.2063 37.8996 40.1532 32.2653 43.6861 28.7019C45.9122 26.4565 48.8747 25.349 52.4852 25.4099C59.6008 25.5262 64.1637 29.1781 66.7386 32.221C68.9564 34.8429 70.158 37.4843 70.6398 38.9074C67.0349 38.542 64.5818 39.2535 63.3386 41.0311C60.6336 44.8962 64.8171 52.4022 66.83 56.0071C67.1982 56.6689 67.5166 57.2392 67.6163 57.4829C68.2725 59.0694 69.1197 60.1298 69.7372 60.9023C69.9282 61.1404 70.1109 61.3702 70.2521 61.5695C69.1613 61.8852 67.1982 62.6106 67.3782 66.2487C67.2342 68.0733 66.2098 76.6176 65.6865 79.6355C64.9943 83.6197 63.5269 85.1038 59.4015 85.9898ZM77.2543 65.5565C76.1385 66.0743 74.2696 66.4646 72.492 66.5477C70.5318 66.6391 69.5323 66.329 69.2969 66.1352C69.1862 63.8703 70.0306 63.6322 70.9222 63.3803C71.0634 63.3415 71.199 63.3027 71.3319 63.2557C71.415 63.3221 71.5036 63.3886 71.6033 63.455C73.1787 64.4961 75.9917 64.6068 79.9593 63.7873L80.0036 63.779C79.4692 64.2829 78.5528 64.9529 77.2543 65.5565Z" fill="#F2F2F2" stroke="#FF4500" stroke-width="2" mask="url(#path-4-inside-1_104_2)"/>
<rect x="1" y="1" width="98" height="98" stroke="#FF4500" stroke-width="2"/>
</svg>
