<svg width="100" height="100" viewBox="0 0 100 100" fill="none" xmlns="http://www.w3.org/2000/svg">
<g clip-path="url(#clip0_104_17)">
<path d="M43.579 24.7329V24.7337V24.7338V24.7338V24.7338V24.7338V24.7338V24.7338V24.7339V24.7339V24.7339V24.7339V24.7339V24.7339V24.7339V24.734V24.734V24.734V24.734V24.734V24.734V24.734V24.7341V24.7341V24.7341V24.7341V24.7341V24.7341V24.7342V24.7342V24.7342V24.7342V24.7342V24.7343V24.7343V24.7343V24.7343V24.7344V24.7344V24.7344V24.7344V24.7345V24.7345V24.7345V24.7345V24.7346V24.7346V24.7346V24.7346V24.7347V24.7347V24.7347V24.7347V24.7348V24.7348V24.7348V24.7348V24.7349V24.7349V24.7349V24.7349V24.7349V24.735V24.735V24.735V24.735V24.7351V24.7351V24.7351V24.7351V24.7351V24.7352V24.7352V24.7352V24.7352V24.7352V24.7353V24.7353V24.7353V24.7353V24.7353V24.7354V24.7354V24.7354V24.7354V24.7354V24.7355V24.7355V24.7355V24.7355V24.7355V24.7356V24.7356V24.7356V24.7356V24.7356V24.7356V24.7357V24.7357V24.7357V24.7357V24.7357V24.7357V24.7358V24.7358V24.7358V24.7358V24.7358V24.7359V24.7359V24.7359V24.7359V24.7359V24.7359V24.736V24.736V24.736V24.736V24.736V24.736V24.7361V24.7361V24.7361V24.7361V24.7361V24.7361V24.7361V24.7362V24.7362V24.7362V24.7362V24.7362V24.7362V24.7363V24.7363V24.7363V24.7363V24.7363V24.7363V24.7364V24.7364V24.7364V24.7364V24.7364V24.7364V24.7364V24.7365V24.7365V24.7365V24.7365V24.7365V24.7365V24.7366V24.7366V24.7366V24.7366V24.7366V24.7366V24.7367V24.7367V24.7367V24.7367V24.7367V24.7367V24.7367V24.7368V24.7368V24.7368V24.7368V24.7368V24.7368V24.7369V24.7369V24.7369V24.7369V24.7369V24.7369V24.737V24.737V24.737V24.737V24.737V24.737V24.7371V24.7371V24.7371V24.7371V24.7371V24.7372V24.7372V24.7372V24.7372V24.7372V24.7372V24.7373V24.7373V24.7373V24.7373V24.7373V24.7374V24.7374V24.7374V24.7374V24.7374V24.7374V24.7375V24.7375V24.7375V24.7375V24.7375V24.7376V24.7376V24.7376V24.7376V24.7376V24.7377V24.7377V24.7377V24.7377V24.7377V24.7378V24.7378V24.7378V24.7378V24.7379V24.7379V24.7379V24.7379V24.7379V24.738V24.738V24.738V24.738V24.7381V24.7381V24.7381V24.7381V24.7382V24.7382V24.7382V24.7382V24.7382V24.7383V24.7383V24.7384V24.7384V24.7384V24.7384V24.7385V24.7385V24.7385V24.7385V24.7386V24.7386V24.7386V24.7386V24.7387V24.7387V24.7387V24.7387V24.7387V24.7387V24.7388V24.7388V24.7388V24.7388V24.7388V24.7388V24.7388V24.7389V24.7389V24.7389V24.7389V24.7389V24.7389V24.7389V24.739V24.739V24.739V24.739V24.739V24.739V24.7391V24.7391V24.7391V24.7391V24.7391H43.079C43.0817 26.3499 41.777 27.6546 40.1662 27.6572L43.579 24.7329ZM43.579 24.7329C43.5758 22.8471 42.0481 21.318 40.1603 21.321M43.579 24.7329L40.1603 21.321M40.1603 21.321H40.1603H40.1603H40.1603H40.1602H40.1602H40.1602H40.1602H40.1601H40.1601H40.1601H40.1601L40.16 21.321M40.1603 21.321L40.16 21.321M40.16 21.321L40.16 21.321H40.16H40.16H40.1599H40.1599H40.1599H40.1599H40.1598H40.1598H40.1598H40.1598H40.1597H40.1597H40.1597H40.1597H40.1597H40.1596H40.1596H40.1596H40.1596H40.1595H40.1595H40.1595H40.1595H40.1595H40.1594H40.1594H40.1594H40.1594H40.1594H40.1593H40.1593H40.1593H40.1593H40.1593H40.1592H40.1592H40.1592H40.1592H40.1592H40.1591H40.1591H40.1591H40.1591H40.1591H40.159H40.159H40.159H40.159H40.159H40.159H40.1589H40.1589H40.1589H40.1589H40.1589H40.1589H40.1588H40.1588H40.1588H40.1588H40.1588H40.1588H40.1587H40.1587H40.1587H40.1587H40.1587H40.1587H40.1586H40.1586H40.1586H40.1586H40.1586H40.1586H40.1585H40.1585H40.1585H40.1585H40.1585H40.1585H40.1584H40.1584H40.1584H40.1584H40.1584H40.1584H40.1583H40.1583H40.1583H40.1583H40.1583H40.1583H40.1582H40.1582H40.1582H40.1582H40.1582H40.1582H40.1582H40.1581H40.1581H40.1581H40.1581H40.1581H40.1581H40.158H40.158H40.158H40.158H40.158H40.158H40.1579H40.1579H40.1579H40.1579H40.1579H40.1579H40.1579H40.1578H40.1578H40.1578H40.1578H40.1578H40.1578H40.1577H40.1577H40.1577H40.1577H40.1577H40.1577H40.1576H40.1576H40.1576H40.1576H40.1576H40.1576H40.1575H40.1575H40.1575H40.1575H40.1575H40.1574H40.1574H40.1574H40.1574H40.1574H40.1574H40.1573H40.1573H40.1573H40.1573H40.1573H40.1572H40.1572H40.1572H40.1572H40.1572H40.1572H40.1571H40.1571H40.1571H40.1571H40.1571H40.157H40.157H40.157H40.157H40.157H40.1569H40.1569H40.1569H40.1569H40.1569H40.1568H40.1568H40.1568H40.1568H40.1567H40.1567H40.1567H40.1567H40.1567H40.1566H40.1566H40.1566H40.1566H40.1565H40.1565H40.1565H40.1565H40.1564H40.1564H40.1564H40.1564H40.1563H40.1563H40.1563H40.1563H40.1562H40.1562H40.1562H40.1562H40.1561H40.1561H40.1561H40.1561H40.156H40.156H40.156H40.156H40.1559H40.1559H40.1559H40.1559H40.1558H40.1558H40.1558H40.1558H40.1557H40.1557H40.1557H40.1557H40.1557H40.1557H40.1556H40.1556H40.1556H40.1556H40.1556H40.1556H40.1556H40.1555H40.1555H40.1555C38.2682 21.321 36.7396 22.8529 36.7428 24.7399V24.7399V24.7399V24.7398V24.7398V24.7398V24.7398V24.7397V24.7397V24.7397V24.7397V24.7396V24.7396V24.7396V24.7395V24.7395V24.7395V24.7395V24.7394V24.7394V24.7394V24.7394V24.7393V24.7393V24.7393V24.7393V24.7393V24.7392V24.7392V24.7392V24.7392V24.7392V24.7392V24.7391V24.7391V24.7391L40.16 21.321ZM33.6703 24.0533L33.6702 24.0181L33.6656 23.9867L33.6656 23.9862L33.6656 23.9862L33.6649 23.9802C33.6641 23.9725 33.6627 23.9584 33.6613 23.9382C33.6586 23.8977 33.6559 23.8333 33.6577 23.7481C33.6612 23.5778 33.6824 23.3261 33.7559 23.0199C33.902 22.4113 34.2575 21.5752 35.1152 20.7251C36.8363 19.0192 40.6585 17.1854 49.1032 17.1854C57.9147 17.1854 61.835 19.3905 63.5759 21.4511C64.4488 22.4843 64.8002 23.51 64.9359 24.2707C64.9929 24.5907 65.0118 24.8641 65.0148 25.0713H64.9897V25.5713V40.2532C64.9897 42.3841 64.4492 43.939 63.6655 45.0818C62.8793 46.2281 61.8267 46.9911 60.757 47.4996C59.6853 48.009 58.6072 48.2576 57.7923 48.378C57.3861 48.4381 57.0487 48.4657 56.8147 48.4784C56.6978 48.4847 56.607 48.4873 56.5466 48.4883C56.5164 48.4888 56.4939 48.4889 56.4795 48.4889L56.4642 48.4889L56.4615 48.4888V48.4888H56.4535H40.3676C37.8705 48.4888 35.9812 49.1045 34.5606 50.0567C33.1426 51.0071 32.2234 52.2713 31.6292 53.5203C31.0361 54.7668 30.7621 56.0067 30.6355 56.9303C30.572 57.3933 30.5451 57.7802 30.5341 58.0534C30.5286 58.19 30.527 58.2985 30.5269 58.374C30.5268 58.4118 30.5271 58.4413 30.5275 58.4621L30.5279 58.4866L30.528 58.4881V65.9384H25.3636H25.3476L25.3335 65.9394L25.333 65.9394L25.3324 65.9394L25.3319 65.9394L25.3317 65.9395L25.3189 65.94C25.306 65.9404 25.2845 65.941 25.2551 65.9411C25.1963 65.9413 25.1058 65.9397 24.9882 65.9321C24.7528 65.9168 24.41 65.8771 23.9957 65.7788C23.168 65.5825 22.0557 65.1528 20.9387 64.2152C18.7175 62.3508 16.3709 58.3824 16.3709 49.8962C16.3709 41.4324 19.0484 37.6381 21.5883 35.9237C22.8721 35.0571 24.1565 34.6961 25.1208 34.552C25.6026 34.4799 26.0023 34.4624 26.2785 34.4626C26.4165 34.4627 26.5233 34.4672 26.5937 34.4715C26.6288 34.4736 26.6549 34.4757 26.6711 34.4771L26.6881 34.4787L26.6898 34.4789L26.6904 34.479L26.6908 34.479L26.6909 34.479L26.691 34.479L26.7179 34.4821H26.7461H49.4065H49.9065V33.9821V31.6895V31.1895H49.4065H33.6878L33.6703 24.0533Z" fill="#F2F2F2" stroke="#FF4500"/>
<path d="M61.9468 75.2295V75.2296V75.2296V75.2297V75.2297V75.2297V75.2298V75.2298V75.2299V75.2299V75.2299V75.23V75.23V75.2301V75.2301V75.2301V75.2302V75.2302V75.2302V75.2302V75.2303V75.2303V75.2303H61.4468L61.9468 75.2295ZM61.9468 75.2295C61.9499 77.1174 60.4208 78.6453 58.5349 78.6485M61.9468 75.2295L58.5349 78.6485M58.5349 78.6485H58.534H58.534H58.534H58.5339H58.5339H58.5339H58.5338H58.5338H58.5337H58.5337H58.5337H58.5336H58.5336H58.5335H58.5335H58.5334H58.5334H58.5334H58.5333H58.5333H58.5333H58.5332H58.5332H58.5331H58.5331H58.5331H58.533H58.533H58.533H58.5329H58.5329H58.5329H58.5328H58.5328H58.5328H58.5327H58.5327H58.5327H58.5326H58.5326H58.5326H58.5325H58.5325H58.5325H58.5324H58.5324H58.5324H58.5323H58.5323H58.5323H58.5322H58.5322H58.5322H58.5321H58.5321H58.532H58.532H58.532H58.5319H58.5319H58.5319H58.5318H58.5318H58.5318H58.5317H58.5317H58.5317H58.5316H58.5316H58.5316H58.5315H58.5315H58.5315H58.5315H58.5314H58.5314H58.5314H58.5313H58.5313H58.5313H58.5312H58.5312H58.5312H58.5311H58.5311H58.5311H58.531H58.531H58.531H58.5309H58.5309H58.5309H58.5308H58.5308H58.5308H58.5307H58.5307H58.5307H58.5306H58.5306H58.5306H58.5305H58.5305H58.5305H58.5304H58.5304H58.5303H58.5303H58.5303H58.5302H58.5302H58.5302H58.5301H58.5301H58.5301H58.5301H58.53H58.53H58.53H58.5299H58.5299H58.5299H58.5298H58.5298H58.5298H58.5297H58.5297H58.5296H58.5296H58.5296H58.5295H58.5295H58.5294H58.5294H58.5294H58.5293H58.5293H58.5292H58.5292H58.5292H58.5291H58.5291H58.529H58.529H58.529H58.5289H58.5289H58.5288H58.5288H58.5288H58.5287H58.5287H58.5287H58.5286V78.1485L58.5349 78.6485ZM65.0193 75.9161L65.0193 75.9514L65.0239 75.9827L65.0239 75.9832L65.0239 75.9833L65.0241 75.9844L65.0246 75.9893C65.0254 75.9969 65.0268 76.0111 65.0282 76.0313C65.0309 76.0717 65.0336 76.1362 65.0318 76.2213C65.0284 76.3916 65.0072 76.6434 64.9336 76.9496C64.7875 77.5581 64.432 78.3942 63.5743 79.2443C61.8532 80.9503 58.031 82.784 49.5864 82.784C40.7749 82.784 36.8544 80.579 35.1132 78.519C34.2401 77.486 33.8884 76.4608 33.7525 75.7007C33.6843 75.3197 33.6703 75.0048 33.6728 74.7893C33.6741 74.6817 33.6794 74.5993 33.6841 74.5462C33.6864 74.5197 33.6886 74.5007 33.69 74.4897L33.6912 74.4803L33.6905 74.4843L33.6892 74.4922C33.6879 74.4988 33.4587 74.6682 33.1764 74.6516C33.023 74.6425 32.8539 74.5785 32.6971 74.4035H33.1971H33.6971V59.7189C33.6971 57.588 34.2376 56.0331 35.0214 54.8903C35.8075 53.744 36.8601 52.981 37.9299 52.4725C39.0015 51.9631 40.0797 51.7145 40.8945 51.5941C41.3007 51.5341 41.6381 51.5064 41.8721 51.4937C41.989 51.4874 42.0798 51.4848 42.1402 51.4838C42.1704 51.4833 42.193 51.4832 42.2073 51.4832L42.2227 51.4833L42.2253 51.4833L42.2253 51.4834H42.2333H58.3193C60.8163 51.4834 62.7056 50.8677 64.1262 49.9155C65.5442 48.965 66.4634 47.7008 67.0577 46.4519C67.6508 45.2054 67.9247 43.9654 68.0513 43.0419C68.1148 42.5788 68.1417 42.1919 68.1528 41.9188C68.1583 41.7821 68.1598 41.6737 68.1599 41.5982C68.16 41.5604 68.1597 41.5308 68.1594 41.51L68.1589 41.4855L68.1588 41.4841V34.0337H73.3233H73.3393L73.3535 34.0328L73.354 34.0327L73.3545 34.0327L73.3551 34.0327L73.3553 34.0327L73.368 34.0322C73.381 34.0317 73.4025 34.0311 73.4319 34.031C73.4907 34.0308 73.5812 34.0323 73.6988 34.04C73.9342 34.0552 74.2769 34.0948 74.6912 34.193C75.519 34.389 76.6312 34.8184 77.7482 35.7556C79.9693 37.6194 82.3159 41.5871 82.3159 50.0733C82.3159 58.5371 79.6385 62.3313 77.0986 64.0458C75.8147 64.9124 74.5303 65.2734 73.5661 65.4175C73.0843 65.4895 72.6846 65.507 72.4084 65.5068C72.2704 65.5067 72.1636 65.5022 72.0932 65.498C72.058 65.4958 72.0319 65.4937 72.0157 65.4923L71.9988 65.4907L71.997 65.4906L71.9964 65.4905L71.996 65.4904L71.996 65.4904L71.969 65.4874H71.9407H49.283H48.783V65.9874V68.28V68.78H49.283H65.0017L65.0193 75.9161ZM55.1105 75.2357V75.2365V75.2311V75.2312V75.2312V75.2313V75.2313V75.2313V75.2314V75.2314V75.2315V75.2315V75.2315V75.2316V75.2316V75.2316V75.2317V75.2317V75.2317V75.2317V75.2318V75.2318V75.2318V75.2319V75.2319V75.2319V75.232V75.232V75.232V75.2321V75.2321V75.2321V75.2322V75.2322V75.2323V75.2323V75.2323V75.2324V75.2324V75.2324V75.2325V75.2325V75.2325V75.2326V75.2326V75.2326V75.2327V75.2327V75.2327V75.2328V75.2328V75.2328V75.2329V75.2329V75.2329V75.2329V75.233V75.233V75.233V75.2331V75.2331V75.2331V75.2332V75.2332V75.2332V75.2333V75.2333V75.2333V75.2334V75.2334V75.2334V75.2335V75.2335V75.2335V75.2336V75.2336V75.2336V75.2337V75.2337V75.2337V75.2338V75.2338V75.2338V75.2339V75.2339V75.2339V75.234V75.234V75.2341V75.2341V75.2341V75.2342V75.2342V75.2342V75.2343V75.2343V75.2343V75.2344V75.2344V75.2344V75.2345V75.2345V75.2345V75.2346V75.2346V75.2346V75.2347V75.2347V75.2347V75.2348V75.2348V75.2348V75.2349V75.2349V75.235V75.235V75.235V75.2351V75.2351V75.2351V75.2352V75.2352V75.2353V75.2353V75.2353V75.2354V75.2354V75.2355V75.2355V75.2355V75.2355V75.2356V75.2356V75.2356V75.2357V75.2357Z" fill="#F2F2F2" stroke="#FF620A"/>
</g>
<rect x="1" y="1" width="98" height="98" stroke="#FF4500" stroke-width="2"/>
<defs>
<clipPath id="clip0_104_17">
<rect width="67.1141" height="66.8456" fill="white" transform="translate(15.8333 16.6666)"/>
</clipPath>
</defs>
</svg>
