<svg width="100" height="100" viewBox="0 0 100 100" fill="none" xmlns="http://www.w3.org/2000/svg">
<path d="M81.412 53.232C78.5961 53.2511 76.1572 54.0543 74.1113 55.2476C73.3574 53.473 72.6003 51.9239 72.4746 50.765C72.3329 49.4187 72.1589 48.6002 72.3329 46.9938C72.5069 45.3875 73.293 43.1079 73.293 42.9205C73.2769 42.7522 73.119 41.9299 71.4984 41.9108C69.8778 41.8916 68.4763 42.2856 68.3217 42.7866C68.167 43.2877 67.8513 44.4504 67.6451 45.6437C67.3616 47.3993 64.4039 53.6183 62.7221 56.8846C62.1712 55.6148 61.7008 54.4942 61.6042 53.5992C61.4624 52.2529 61.2884 51.4344 61.4624 49.828C61.6364 48.2216 62.4225 45.942 62.4225 45.7585C62.4064 45.5902 62.2485 44.7678 60.6279 44.7487C59.0074 44.7296 57.6058 45.1235 57.4512 45.6246C57.2933 46.1295 57.1194 47.3228 56.7746 48.4817C56.4428 49.6406 52.5121 60.0247 51.4876 62.7327C50.9689 64.1134 50.5114 65.2149 50.1827 65.9646C49.8509 66.7104 50.1666 66.0219 50.1344 66.0946C49.8509 66.7295 49.693 67.0852 49.693 67.0852V67.1043C49.4739 67.571 49.2355 68.0185 49.126 68.0185C49.0486 68.0185 48.8908 66.7678 49.1582 65.0505C49.7413 61.4475 51.1557 55.8252 51.1396 55.6186C51.1396 55.5268 51.407 54.5362 50.2278 54.0314C49.0809 53.5265 48.6717 54.368 48.575 54.368C48.4816 54.368 48.4011 54.6663 48.4011 54.6663C48.4011 54.6663 49.6769 48.3363 45.9621 48.3363C43.6327 48.3363 40.4238 51.3426 38.8354 54.0887C37.8302 54.7428 35.6877 56.1235 33.4227 57.5999C32.556 58.1583 31.6604 58.7588 30.8098 59.298L30.6358 59.0724C26.1446 53.385 17.8226 49.3499 18.1705 41.6928C18.2962 38.9083 19.1145 31.5725 34.1541 22.6799C46.4712 15.3976 56.3364 17.3942 58.0505 21.8385C60.4894 28.1876 52.7795 39.9907 39.9759 41.6889C35.0981 42.343 32.5335 40.1017 31.8891 39.2602C31.2125 38.3843 31.1191 38.3461 30.8678 38.5144C30.4586 38.7745 30.7099 39.5585 30.8678 40.029C31.2448 41.207 32.817 43.2953 35.4944 44.3433C37.8366 45.2574 43.5651 45.7623 50.4856 42.5877C58.2406 39.0193 64.2976 29.1208 62.5192 20.8479C60.7085 12.4296 48.9423 9.66435 37.8173 14.3497C31.1964 17.1532 24.0214 21.5211 18.8632 27.2543C12.7256 34.0547 11.7526 39.9946 12.1618 42.4577C13.5923 51.2546 23.8023 56.9879 27.894 61.2257C27.6911 61.3558 27.501 61.4858 27.327 61.6005C25.2811 62.7939 17.494 67.6322 15.5447 72.7497C13.341 78.5403 15.8895 82.7055 17.5906 83.2639C22.8454 85.0003 28.2259 81.8832 31.1352 76.7465C34.0284 71.6099 33.6837 64.9434 32.3466 61.8989L32.2983 61.788L33.9028 60.6673C34.9402 59.9406 35.9648 59.2674 36.8604 58.6861C36.3578 60.3116 35.9938 62.2354 35.8069 65.0352C35.5878 68.3206 36.7187 72.5814 38.2136 74.2604C38.8741 74.9871 39.6602 75.0063 40.1499 75.0063C41.8801 75.0063 42.6662 73.3081 43.5329 71.2695C44.6025 68.7872 45.5465 65.911 45.5465 65.911C45.5465 65.911 44.3673 73.6982 47.5924 73.6982C48.7716 73.6982 49.9508 71.8853 50.4856 70.952V70.9712C50.4856 70.9712 50.5178 70.9138 50.579 70.7837C50.6435 70.669 50.7079 70.5504 50.7691 70.428V70.3898C51.2395 69.4183 52.2963 67.1961 53.8685 63.5167C55.8983 58.7741 57.8475 52.8342 57.8475 52.8342C57.8475 52.8342 58.0376 54.2915 58.6175 56.6819C58.9622 58.1009 59.7194 59.6499 60.2993 61.1645C59.8289 61.9486 59.5454 62.3961 59.5454 62.3961L59.5615 62.4152C59.1845 63.0119 58.7593 63.6468 58.3179 64.2817C56.7134 66.5612 54.7932 69.1544 54.5419 69.9041C54.2423 70.7799 54.3067 71.434 54.8866 71.9579C55.3119 72.3328 56.0658 72.4054 56.868 72.3328C58.3147 72.2219 59.3231 71.7897 59.8257 71.5296C60.6118 71.193 61.5075 70.6881 62.3742 69.9423C63.9464 68.5616 64.9065 66.5995 64.8131 63.9834C64.7648 62.5452 64.3717 61.1263 63.8852 59.78C64.027 59.539 64.1687 59.2942 64.3105 59.0341C66.7945 54.7198 68.7148 49.9771 68.7148 49.9771C68.7148 49.9771 68.9048 51.4344 69.4848 53.8248C69.7844 55.0373 70.3804 56.3645 70.9153 57.6725C68.5859 59.9329 67.1232 62.5452 66.6206 64.2664C65.6927 67.4409 66.4176 68.879 67.7836 69.2156C68.3958 69.3648 69.2786 69.0282 69.939 68.6916C70.7574 68.3742 71.7497 67.831 72.6615 67.0279C74.2338 65.6471 75.7448 63.7233 75.6675 61.1263C75.6191 59.933 75.3517 58.7549 74.9909 57.6343C76.9723 56.6628 79.5369 56.1044 82.7942 56.571C89.7952 57.5425 91.1806 62.7327 90.9132 64.9013C90.6458 67.0661 89.1831 68.2632 88.6934 68.6381C88.2069 68.9938 88.049 69.1238 88.0941 69.3839C88.1585 69.7778 88.3776 69.7587 88.8029 69.6822C89.3861 69.5713 92.4855 67.9075 92.6111 63.9107C92.8012 58.7817 88.6934 53.1785 81.412 53.232ZM27.4204 74.8418C25.1072 77.8481 21.8499 78.9878 20.4677 78.0163C18.9728 76.9875 19.5559 72.5623 22.404 69.3686C24.1342 67.4256 26.383 65.6318 27.8618 64.5303C28.1937 64.2893 28.6963 63.9336 29.2923 63.5014C29.3858 63.4288 29.4502 63.3905 29.4502 63.3905C29.5597 63.314 29.6854 63.2222 29.811 63.1304C30.8646 67.6895 29.8594 71.6864 27.4204 74.8418ZM44.3319 61.1913C43.5296 63.5244 41.8317 69.5216 40.8072 69.185C39.9276 68.9058 39.3928 64.3658 40.6332 59.8832C41.2615 57.6228 42.5985 54.934 43.3846 53.8899C44.6605 52.2108 46.0427 51.6486 46.3906 52.3408C46.7998 53.232 44.8345 59.7341 44.3319 61.1913ZM58.2857 69.1085C57.9409 69.315 57.6252 69.4642 57.4834 69.3533C57.3739 69.2768 57.6252 68.9976 57.6252 68.9976C57.6252 68.9976 59.3714 66.7754 60.0641 65.7466C60.4572 65.1499 60.9308 64.4576 61.4334 63.6735V63.8992C61.4302 66.588 59.2619 68.378 58.2857 69.1085ZM69.0466 66.1941C68.7953 65.9684 68.8275 65.2799 69.6749 63.1113C70.0067 62.2507 70.7606 60.8126 72.0655 59.451C72.2233 60.0094 72.3168 60.5526 72.3007 61.0574C72.2878 64.4194 70.2741 65.6701 69.0466 66.1941Z" fill="#FF4500"/>
<rect x="1" y="1" width="98" height="98" stroke="#FF4500" stroke-width="2"/>
</svg>
