<svg width="100" height="100" viewBox="0 0 100 100" fill="none" xmlns="http://www.w3.org/2000/svg">
<path d="M14.1972 72.2508H12.9581L15.3588 65.5911H16.8301L19.2307 72.2508H17.9143L16.1331 66.9075H16.0557L14.1972 72.2508ZM14.2746 69.6953H17.7594V70.6246H14.2746V69.6953Z" fill="#F2F2F2"/>
<path d="M23.5673 67.4496C23.5673 67.1398 23.4124 66.9849 23.1801 66.83C22.9478 66.6752 22.7155 66.5977 22.3283 66.5977C22.0185 66.5977 21.8637 66.6752 21.7088 66.7526C21.4765 66.83 21.3216 66.9849 21.3216 67.0624C21.2441 67.2172 21.1667 67.3721 21.1667 67.4496C21.1667 67.527 21.1667 67.7593 21.2441 67.8368C21.3216 67.9142 21.399 68.0691 21.5539 68.1465C21.7088 68.224 21.7862 68.3014 21.9411 68.3788C22.096 68.4563 22.2509 68.4563 22.3283 68.5337L22.9478 68.6886C23.2576 68.766 23.4124 68.8435 23.6448 68.9209C23.8771 68.9983 24.032 69.1532 24.2643 69.3081C24.4966 69.463 24.6515 69.6953 24.6515 69.8502C24.8064 70.0825 24.8064 70.3148 24.8064 70.6246C24.8064 71.0118 24.7289 71.3215 24.4966 71.7087C24.2643 72.0185 24.032 72.2508 23.6448 72.4057C23.2576 72.5606 22.7929 72.7154 22.2509 72.7154C21.7862 72.7154 21.2441 72.638 20.9344 72.4831C20.5472 72.3282 20.2374 72.0959 20.0051 71.7862C19.7728 71.4764 19.6179 71.0892 19.6179 70.6246H20.7795C20.7795 70.8569 20.8569 71.0118 21.0118 71.1666C21.1667 71.3215 21.3216 71.4764 21.4765 71.5538C21.7088 71.6313 21.8637 71.7087 22.1734 71.7087C22.4832 71.7087 22.6381 71.6313 22.8704 71.5538C23.1027 71.4764 23.2576 71.3215 23.335 71.1666C23.4899 71.0118 23.4899 70.8569 23.4899 70.702C23.4899 70.5471 23.4124 70.3148 23.335 70.3148C23.2576 70.1599 23.1027 70.0825 22.9478 70.0051C22.7155 69.9276 22.5606 69.8502 22.3283 69.7727L21.5539 69.5404C21.0118 69.3855 20.5472 69.1532 20.2374 68.9209C19.8502 68.6111 19.7728 68.224 19.7728 67.7593C19.7728 67.3721 19.9277 66.9849 20.16 66.6752C20.3923 66.3654 20.6246 66.2105 21.0118 65.9782C21.399 65.8233 21.7862 65.6685 22.2509 65.6685C22.7155 65.6685 23.1801 65.7459 23.4899 65.9782C23.8771 66.1331 24.1094 66.3654 24.3417 66.6752C24.574 66.9849 24.6515 67.2947 24.7289 67.6819H23.5673V67.4496Z" fill="#F2F2F2"/>
<path d="M25.8905 72.2508V65.5911H28.446C28.9106 65.5911 29.3753 65.6685 29.685 65.9008C30.0722 66.1331 30.3045 66.288 30.4594 66.6752C30.6917 67.0624 30.7692 67.3722 30.7692 67.8368C30.7692 68.224 30.6917 68.6886 30.4594 68.9984C30.2271 69.3856 30.0722 69.5405 29.685 69.7728C29.2978 70.0051 28.9106 70.0825 28.3686 70.0825H26.6649V69.0758H28.1362C28.446 69.0758 28.6783 68.9984 28.9106 68.921C29.143 68.8435 29.2978 68.6112 29.2978 68.5338C29.3753 68.3014 29.4527 68.1466 29.4527 67.9142C29.4527 67.6819 29.3753 67.527 29.2978 67.2947C29.2204 67.0624 29.0655 66.9075 28.9106 66.9075C28.6783 66.8301 28.5234 66.7527 28.1362 66.7527H26.9747V72.4832H25.8905V72.2508Z" fill="#F2F2F2"/>
<path d="M32.2405 72.3282C32.0082 72.3282 31.8533 72.2508 31.7759 72.0959C31.621 72.0185 31.5436 71.8636 31.5436 71.6313C31.5436 71.399 31.621 71.2441 31.7759 71.1666C31.9308 71.0892 32.0857 70.9343 32.2405 70.9343C32.3954 70.9343 32.6277 71.0118 32.7052 71.1666C32.86 71.3215 32.9375 71.4764 32.9375 71.6313C32.9375 71.7862 32.86 71.941 32.86 72.0185C32.7826 72.1734 32.7052 72.2508 32.5503 72.3282C32.4729 72.2508 32.3954 72.3282 32.2405 72.3282Z" fill="#F2F2F2"/>
<path d="M39.6747 65.5911V72.2508H39.1326L35.1832 66.5978H35.1058V72.2508H34.4863V65.5911H35.0284L38.9778 71.2441H39.0552V65.5911H39.6747Z" fill="#F2F2F2"/>
<path d="M41.4558 72.2508V65.5911H45.3278V66.1331H41.9979V68.6886H45.0955V69.1533H41.9979V71.7088H45.3278V72.2508H41.4558Z" fill="#F2F2F2"/>
<path d="M46.5668 66.0557V65.5137H51.4455V66.0557H49.3546V72.1735H48.7351V66.0557H46.5668Z" fill="#F2F2F2"/>
<path d="M56.1693 72.2508L54.3107 65.5911H55.3949L56.7114 70.7795H56.7888L58.1053 65.5911H59.1894L60.5059 70.7795H60.5833L61.8998 65.5911H62.9839L61.1254 72.2508H60.0413L58.6473 67.2173L57.2534 72.2508H56.1693Z" fill="#F2F2F2"/>
<path d="M65.462 72.3282C64.9974 72.3282 64.5327 72.1734 64.223 71.9411C63.8358 71.7087 63.6035 71.4764 63.3711 71.0118C63.1388 70.6246 63.0614 70.1599 63.0614 69.6953C63.0614 69.2307 63.1388 68.6886 63.3711 68.3788C63.6035 67.9916 63.8358 67.6819 64.223 67.4496C64.6102 67.2173 64.9974 67.0624 65.3846 67.0624C65.6943 67.0624 65.9266 67.1398 66.2364 67.2173C66.5462 67.2947 66.701 67.4496 66.9334 67.6045C67.1657 67.8368 67.3206 68.0691 67.398 68.3788C67.5529 68.766 67.6303 69.0758 67.6303 69.5404V69.9276H63.6035V69.2307H66.6236C66.6236 68.9209 66.5462 68.766 66.4687 68.5337C66.3913 68.3014 66.159 68.1465 66.0815 68.0691C65.9266 67.9916 65.6943 67.9916 65.462 67.9916C65.1523 67.9916 64.9974 68.0691 64.7651 68.224C64.5327 68.3788 64.3779 68.5337 64.3004 68.6886C64.1455 68.9209 64.1455 69.0758 64.1455 69.3856V69.9276C64.1455 70.3148 64.223 70.5471 64.3779 70.7795C64.5327 71.0118 64.6876 71.1667 64.8425 71.3215C65.0748 71.4764 65.3071 71.5539 65.6169 71.5539C65.8492 71.5539 66.0041 71.5539 66.0815 71.4764C66.2364 71.399 66.3913 71.3215 66.4687 71.2441C66.6236 71.0892 66.701 71.0118 66.7785 70.8569L67.7077 71.0118C67.6303 71.3215 67.4754 71.4764 67.3205 71.7087C67.0882 71.9411 66.9334 72.0959 66.6236 72.1734C66.159 72.2508 65.9266 72.3282 65.462 72.3282Z" fill="#F2F2F2"/>
<path d="M68.8693 72.2508V65.5911H69.876V68.0691H69.9535C70.0309 67.9917 70.1084 67.8368 70.1858 67.6819C70.3407 67.527 70.4956 67.3722 70.573 67.2947C70.8053 67.2173 70.9602 67.1399 71.3474 67.1399C71.7346 67.1399 72.1218 67.2173 72.4315 67.4496C72.8187 67.6819 72.9736 67.9142 73.2059 68.3789C73.4382 68.7661 73.5157 69.2307 73.5157 69.7728C73.5157 70.3149 73.4382 70.7795 73.2059 71.1667C72.9736 71.5539 72.8187 71.8637 72.4315 72.096C72.1218 72.3283 71.7346 72.4057 71.3474 72.4057C71.0376 72.4057 70.8053 72.3283 70.573 72.2508C70.3407 72.1734 70.1858 72.0185 70.1858 71.8636C70.0309 71.7088 69.9535 71.5539 69.876 71.4765H69.7986V72.2508H68.8693ZM69.7986 69.7728C69.7986 70.16 69.876 70.3923 69.9535 70.7021C70.0309 71.0118 70.2632 71.1667 70.3407 71.3216C70.573 71.4765 70.7279 71.5539 71.0376 71.5539C71.3474 71.5539 71.5797 71.4765 71.7346 71.3216C71.9669 71.1667 72.1218 70.9344 72.1218 70.7021C72.1992 70.3923 72.2767 70.16 72.2767 69.7728C72.2767 69.3856 72.1992 69.1533 72.1218 68.8435C72.0443 68.5338 71.812 68.3789 71.7346 68.224C71.5023 68.0691 71.3474 67.9917 71.0376 67.9917C70.7279 67.9917 70.573 68.0691 70.3407 68.224C70.1084 68.3789 69.9535 68.6112 69.9535 68.8435C69.876 69.1533 69.7986 69.3856 69.7986 69.7728Z" fill="#F2F2F2"/>
<path d="M77.62 72.2508H76.5358L78.9365 65.5911H80.0981L82.4987 72.2508H81.4145L79.4785 66.7527H79.4011L77.62 72.2508ZM77.7749 69.6953H81.2596V70.5472H77.7749V69.6953Z" fill="#F2F2F2"/>
<path d="M83.5054 72.2508V65.5911H85.906C86.3706 65.5911 86.9127 65.6685 87.145 65.9008C87.4548 66.1331 87.7646 66.288 87.9194 66.6752C88.0743 67.0624 88.2292 67.3722 88.2292 67.8368C88.2292 68.224 88.1518 68.6112 87.9194 68.9984C87.7646 69.3856 87.5322 69.5405 87.145 69.7728C86.7578 70.0051 86.3706 70.0825 85.906 70.0825H84.2798V69.2307H85.8286C86.2158 69.2307 86.3706 69.1533 86.603 69.0758C86.8353 68.921 86.9902 68.7661 86.9902 68.6112C87.0676 68.3789 87.145 68.224 87.145 67.9142C87.145 67.6045 87.0676 67.4496 86.9902 67.2173C86.9127 66.985 86.6804 66.8301 86.603 66.7527C86.3706 66.5978 86.1383 66.5978 85.7511 66.5978H84.5121V72.4057L83.5054 72.2508Z" fill="#F2F2F2"/>
<path d="M90.3975 65.5911V72.2508H89.3908V65.5911H90.3975Z" fill="#F2F2F2"/>
<path d="M40.1393 34.6154C42.3851 41.43 43.2369 53.588 49.7418 53.588C50.2065 53.588 50.7485 53.5106 51.2132 53.4331C45.3278 52.0392 44.6308 40.0361 40.9137 33.7635C40.6814 34.1507 40.4491 34.3831 40.1393 34.6154Z" fill="#FF620A"/>
<path d="M40.9912 33.8409C44.5534 40.0361 45.2503 52.0392 51.2906 53.5105C51.7552 53.4331 52.2199 53.2782 52.6845 53.1233C47.3412 50.4904 45.9473 38.7971 41.7656 33.2214C41.4558 33.4538 41.2235 33.6086 40.9912 33.8409Z" fill="#FF620A"/>
<path d="M46.1796 30.1238C45.715 30.1238 45.1729 30.2012 44.7083 30.2787C43.3918 30.5884 41.9979 31.1305 40.6814 31.9823C41.0686 32.3695 41.3784 32.7567 41.7656 33.2214C43.1595 32.0598 44.4759 31.2854 45.8699 30.7433C46.3345 30.511 46.8766 30.3561 47.4186 30.3561C46.954 30.2012 46.6442 30.1238 46.1796 30.1238Z" fill="#FF4500"/>
<path d="M56.7114 50.6452C57.2534 50.258 57.8729 49.7159 58.3376 49.2513C56.0918 42.5141 55.24 30.1238 48.6577 30.1238C48.193 30.1238 47.7284 30.2012 47.2638 30.2787C53.304 31.8274 54.0784 44.7598 56.7114 50.6452Z" fill="#FF620A"/>
<path d="M56.7114 52.1166C56.4016 51.8842 56.2467 51.6519 55.937 51.3422C54.7754 52.1166 53.7687 52.7361 52.6071 53.1233C52.9943 53.3556 53.3815 53.5105 53.7687 53.5105C54.1559 53.5879 54.4656 53.5879 54.8528 53.5879C56.0144 53.5879 57.0211 53.433 57.8729 53.0458C57.4857 52.891 57.0211 52.5038 56.7114 52.1166Z" fill="#FF4500"/>
<path d="M45.8699 30.6658C51.2132 33.4536 51.6778 46.1537 55.937 51.2647C56.2467 51.0324 56.479 50.8775 56.7888 50.6452C54.0784 44.7598 53.304 31.6725 47.3412 30.2012C46.7991 30.4335 46.3345 30.5109 45.8699 30.6658Z" fill="#FF620A"/>
<path d="M41.7656 33.2214C45.8698 38.8745 47.3412 50.5678 52.6845 53.1233C53.8461 52.7361 54.8528 52.1166 56.0144 51.3422C51.6778 46.1538 51.2132 33.4537 45.8698 30.6659C44.3985 31.208 43.082 32.0598 41.7656 33.2214Z" fill="#FF4500"/>
<path d="M37.5064 34.4603C36.8869 35.9317 36.2674 37.8676 35.4155 40.2683C36.9643 38.0225 38.5905 36.0865 40.1393 34.5377C39.907 33.9182 39.7521 33.2987 39.4424 32.6792C38.7454 33.3762 38.1259 33.9182 37.5064 34.4603Z" fill="#FF620A"/>
<path d="M39.9845 32.447C39.7521 32.6019 39.5973 32.7568 39.4424 32.8342C39.7521 33.3763 39.907 33.9958 40.1393 34.6928C40.4491 34.383 40.6814 34.1507 40.9912 33.9184C40.6814 33.3763 40.3717 32.8342 39.9845 32.447Z" fill="#FF620A"/>
<path d="M40.6814 31.9823C40.4491 32.1372 40.2942 32.2921 39.9845 32.3695C40.3717 32.7567 40.6814 33.2988 40.9912 33.7634C41.2235 33.5311 41.4558 33.3762 41.7656 33.1439C41.3784 32.7567 41.0686 32.2921 40.6814 31.9823Z" fill="#FF4500"/>
<path d="M77.2328 29.6592C74.1352 41.3525 67.8626 50.7226 62.5193 53.1233C62.4419 53.2007 62.287 53.2007 62.2095 53.2781H62.1321C62.1321 53.2781 62.1321 53.2781 62.0547 53.2781C61.9772 53.2781 61.9772 53.2781 61.8998 53.3556H61.8224H61.7449H61.6675C61.59 53.3556 61.59 53.3556 61.5126 53.3556C61.5126 53.3556 61.5126 53.3556 61.4352 53.3556H61.3577C61.3577 53.3556 61.3577 53.3556 61.2803 53.3556H61.2028H61.1254C61.3577 53.433 61.59 53.5105 61.8998 53.5105C66.9333 53.5105 71.9669 44.5275 80.4078 29.5043L77.2328 29.6592Z" fill="#FF4500"/>
<path d="M34.254 30.5885C34.3314 30.5885 34.3314 30.5111 34.4088 30.5111H34.4863C34.5637 30.5111 34.6411 30.4336 34.7186 30.4336H34.796C34.796 30.4336 34.796 30.4336 34.8735 30.4336H34.9509C35.0283 30.4336 35.1832 30.3562 35.2607 30.3562C35.2607 30.3562 35.2607 30.3562 35.3381 30.3562H35.4155C35.4155 30.3562 35.4155 30.3562 35.493 30.3562H35.5704C35.6479 30.3562 35.7253 30.3562 35.7253 30.3562H35.8027C35.8027 30.3562 35.8027 30.3562 35.8802 30.3562H35.9576C35.9576 30.3562 35.9576 30.3562 36.0351 30.3562C36.1125 30.3562 36.1899 30.3562 36.2674 30.3562C36.0351 30.3562 35.8802 30.3562 35.7253 30.3562C30.0722 30.3562 22.2509 40.8105 18.7661 54.5173H19.463C20.6246 52.5813 21.5539 50.6453 22.4832 48.7868C24.8838 38.952 29.8399 32.3696 34.254 30.5885Z" fill="#FF620A"/>
<path d="M37.5064 34.4605C38.1259 33.9184 38.7454 33.2989 39.4424 32.7568C39.2875 32.447 39.1326 32.1373 38.9777 31.8275C38.4357 32.6019 37.971 33.4537 37.5064 34.4605Z" fill="#FF620A"/>
<path d="M22.4057 48.5544C27.5167 38.6422 29.9948 32.2922 34.3314 30.5885C29.8399 32.3696 24.8838 38.952 22.4057 48.5544Z" fill="#FF620A"/>
<path d="M39.2875 31.5952C39.2101 31.6727 39.0552 31.8275 38.9777 31.9824C39.1326 32.2922 39.3649 32.5245 39.4424 32.9117C39.6747 32.7568 39.8296 32.6019 39.9845 32.5245C39.7521 32.1373 39.5198 31.905 39.2875 31.5952Z" fill="#FF620A"/>
<path d="M24.7289 54.2074H24.574C24.4966 54.2074 24.4192 54.2074 24.3417 54.2074C29.5301 54.0525 31.9308 51.497 33.1698 47.625C34.0991 44.7598 34.796 42.3592 35.493 40.2683C33.3247 43.3659 31.1564 47.0055 28.9106 51.1098C27.749 53.2007 26.1228 54.0525 24.7289 54.2074Z" fill="#FF620A"/>
<path d="M24.7289 54.2074C26.1228 53.9751 27.749 53.2007 28.8332 51.2647C31.0015 47.1604 33.2472 43.4433 35.4155 40.4232C36.1899 37.9451 36.8869 36.0091 37.5064 34.6152C33.1698 38.6421 28.7558 45.5342 24.7289 54.2074Z" fill="#FF4500"/>
<path d="M22.4057 48.5544C21.4765 50.3355 20.4697 52.1941 19.3856 54.285H21.3216C21.5539 52.349 21.8636 50.4904 22.4057 48.5544Z" fill="#FF620A"/>
<path d="M35.9576 30.2012C35.8802 30.2012 35.8802 30.2012 35.8027 30.2012C35.8027 30.2012 35.8027 30.2012 35.7253 30.2012H35.6479C35.5704 30.2012 35.493 30.2012 35.493 30.2012H35.4155C35.4155 30.2012 35.4155 30.2012 35.3381 30.2012H35.2607C35.2607 30.2012 35.2607 30.2012 35.1832 30.2012C35.1058 30.2012 34.9509 30.2786 34.8735 30.2786H34.796C34.796 30.2786 34.796 30.2786 34.7186 30.2786H34.6411C34.5637 30.2786 34.4863 30.356 34.4088 30.356H34.3314C34.3314 30.356 34.3314 30.356 34.2539 30.356H34.1765C29.9173 32.0597 27.4393 38.4097 22.2508 48.322C21.7862 50.258 21.399 52.1165 21.1667 54.0525H21.4765C22.2508 54.0525 22.4832 54.0525 23.4124 54.0525H24.2643C24.3417 54.0525 24.4191 54.0525 24.4966 54.0525H24.574H24.6515C28.6783 45.3793 33.0924 38.4872 37.429 34.3055C37.8936 33.2213 38.4357 32.3695 38.9003 31.75C38.5905 31.2853 38.2808 30.8207 37.8936 30.5109H37.8162H37.7387H37.6613C37.5838 30.5109 37.5838 30.5109 37.5064 30.4335C37.5064 30.4335 37.5064 30.4335 37.429 30.4335H37.3515C37.3515 30.4335 37.3515 30.4335 37.2741 30.4335C37.1966 30.4335 37.1966 30.4335 37.1192 30.356C37.0418 30.356 37.0418 30.356 36.9643 30.2786C36.8869 30.2786 36.8869 30.2786 36.8094 30.2786C36.732 30.2786 36.5771 30.2012 36.4997 30.2012C36.4222 30.2012 36.4222 30.2012 36.3448 30.2012C36.2674 30.2012 36.2674 30.2012 36.1899 30.2012C36.1125 30.2012 36.1125 30.2012 35.9576 30.2012C36.1125 30.2012 36.035 30.2012 35.9576 30.2012Z" fill="#FF4500"/>
<path d="M65.3071 36.0866C64.3004 39.2616 63.4486 41.8946 62.8291 44.0629C65.5394 40.3458 68.2498 35.622 70.8053 30.1238C67.8626 31.1305 66.2364 33.2214 65.3071 36.0866Z" fill="#FF620A"/>
<path d="M62.9065 52.891C62.7516 52.9684 62.5967 53.0459 62.5193 53.1233C67.7852 50.7227 74.1352 41.3525 77.1553 29.6592H76.5358C69.6437 42.0495 67.398 50.4129 62.9065 52.891Z" fill="#FF620A"/>
<path d="M59.4992 51.8068C60.6608 50.4129 61.59 48.0123 62.9065 44.0629C61.4352 46.0763 59.9638 47.8574 58.4925 49.2513C58.7248 50.258 59.0345 51.1098 59.4992 51.8068Z" fill="#FF620A"/>
<path d="M59.4992 51.8069C59.112 52.2715 58.7248 52.6587 58.2601 52.9685C58.1827 53.0459 58.0278 53.1234 57.9504 53.1234C58.415 53.4331 59.0345 53.5106 59.5766 53.588C59.654 53.588 59.7315 53.588 59.8864 53.588C59.9638 53.588 59.9638 53.588 60.0412 53.588H60.4284C60.4284 53.588 60.4284 53.588 60.5059 53.588H60.5833H60.6608H60.7382C60.8156 53.588 60.8156 53.588 60.8931 53.588C60.9705 53.588 60.9705 53.588 61.048 53.588C61.1254 53.588 61.2028 53.588 61.3577 53.5106C60.5833 53.2782 59.9638 52.6587 59.4992 51.8069Z" fill="#FF4500"/>
<path d="M49.7418 53.6654C50.2065 53.6654 50.7485 53.5879 51.2132 53.5105C51.6778 53.433 52.1424 53.2782 52.6071 53.1233C52.9943 53.3556 53.3815 53.5105 53.7687 53.5105C54.1559 53.5879 54.4656 53.5879 54.8528 53.5879C54.8528 53.6654 49.7418 53.6654 49.7418 53.6654Z" fill="#FF4500"/>
<path d="M54.9302 53.6654C56.0918 53.6654 57.0985 53.5105 57.9504 53.1233C58.415 53.433 59.0345 53.5105 59.5766 53.5879C59.654 53.5879 59.7315 53.5879 59.8864 53.5879C59.9638 53.5879 59.9638 53.5879 60.0412 53.5879H60.1961L54.9302 53.6654Z" fill="#FF4500"/>
<path d="M60.0412 53.6653H60.351C60.351 53.6653 60.351 53.6653 60.4284 53.6653H60.5059H60.5833H60.6608C60.7382 53.6653 60.7382 53.6653 60.8156 53.6653C60.8931 53.6653 60.8931 53.6653 60.9705 53.6653C61.048 53.6653 61.1254 53.6653 61.2803 53.5879C61.5126 53.6653 61.7449 53.7428 62.0547 53.7428L60.0412 53.6653Z" fill="#FF620A"/>
<path d="M58.415 49.2515C57.9504 49.7161 57.3309 50.2582 56.7888 50.6454C56.479 50.8777 56.2467 51.0326 55.937 51.2649C56.1693 51.5746 56.4016 51.807 56.7114 52.0393C57.0986 52.4265 57.4857 52.7362 57.9504 52.9686C58.0278 52.8911 58.1827 52.8137 58.2601 52.8137C58.7248 52.5039 59.112 52.1942 59.4992 51.6521C59.0345 51.11 58.7248 50.2582 58.415 49.2515Z" fill="#FF4500"/>
<path d="M74.5998 29.6592H71.5023C71.3474 29.6592 71.1151 29.6592 71.0376 29.6592C70.9602 29.8141 70.8828 30.0464 70.8053 30.1238C68.2498 35.622 65.6169 40.3458 62.8291 44.0629C61.59 48.0123 60.5833 50.4129 59.4217 51.8068C59.8864 52.6587 60.5059 53.2007 61.2028 53.5105H61.2803C61.2803 53.5105 61.2803 53.5105 61.3577 53.5105H61.4352C61.4352 53.5105 61.4352 53.5105 61.5126 53.5105H61.59C61.59 53.5105 61.59 53.5105 61.6675 53.5105C61.7449 53.5105 61.7449 53.5105 61.8224 53.5105H61.8998H61.9772H62.0547H62.1321C62.2096 53.5105 62.2096 53.5105 62.287 53.4331C62.287 53.4331 62.287 53.4331 62.3644 53.4331H62.4419C62.5193 53.3556 62.6742 53.3556 62.7516 53.2782C62.9065 53.2007 63.0614 53.1233 63.1388 53.0459C67.5529 50.5678 69.7986 42.2818 76.7682 29.8141L74.5998 29.6592Z" fill="#FF4500"/>
<path d="M39.2875 31.5952C39.5973 31.905 39.7521 32.0598 39.9845 32.3696C40.2168 32.2147 40.3717 32.0598 40.6814 31.9824C40.3717 31.6726 40.0619 31.4403 39.6747 31.208C39.5973 31.2854 39.4424 31.4403 39.2875 31.5952Z" fill="#FF620A"/>
<path d="M62.9065 44.0629C63.6034 41.8946 64.3778 39.2617 65.462 36.0866C66.3913 33.2214 67.9401 31.0531 70.9602 30.1238C71.0376 29.9689 71.1151 29.7366 71.1925 29.6592C66.3138 29.9689 64.0681 32.3696 62.9065 36.0866C60.9705 42.5141 59.654 46.6184 58.5699 49.2513C59.8864 47.8574 61.3577 46.0763 62.9065 44.0629Z" fill="#FF620A"/>
<path d="M69.9535 51.9618H69.4114V53.6655H69.1791V51.9618H68.637V51.7295H69.9535V51.9618ZM72.1992 53.6655H71.9669V52.4264C71.9669 52.349 71.9669 52.1941 71.9669 52.0393C71.9669 52.1167 71.8895 52.1941 71.8895 52.2716L71.2699 53.7429H71.1151L70.4956 52.2716C70.4956 52.1941 70.4181 52.1167 70.4181 52.0393C70.4181 52.1167 70.4181 52.2716 70.4181 52.4264V53.6655H70.2632V51.7295H70.573L71.1151 53.046C71.1925 53.1234 71.1925 53.2783 71.1925 53.2783C71.2699 53.2008 71.2699 53.046 71.2699 53.046L71.8895 51.7295H72.1992V53.6655Z" fill="#F2F2F2"/>
<rect x="1" y="1" width="98" height="98" stroke="#FF4500" stroke-width="2"/>
</svg>
